<svg width="80" height="116" viewBox="0 0 80 116" fill="none" xmlns="http://www.w3.org/2000/svg">
<path d="M40.68 115.92C33.4267 115.92 26.8133 114.64 20.84 112.08C14.8667 109.413 10.0667 105.413 6.44 100.08C2.92 94.64 1.05333 87.8133 0.84 79.6H19.72C19.8267 83.3333 20.68 86.7467 22.28 89.84C23.9867 92.8267 26.3867 95.2267 29.48 97.04C32.5733 98.7467 36.3067 99.6 40.68 99.6C44.84 99.6 48.36 98.8 51.24 97.2C54.2267 95.6 56.4667 93.4133 57.96 90.64C59.4533 87.8667 60.2 84.7733 60.2 81.36C60.2 77.2 59.1867 73.7867 57.16 71.12C55.1333 68.3467 52.36 66.2667 48.84 64.88C45.32 63.4933 41.32 62.8 36.84 62.8H28.52V46.96H36.84C42.7067 46.96 47.5067 45.6267 51.24 42.96C54.9733 40.1867 56.84 36.1867 56.84 30.96C56.84 26.5867 55.4 23.0667 52.52 20.4C49.7467 17.7333 45.7467 16.4 40.52 16.4C35.08 16.4 30.76 18 27.56 21.2C24.4667 24.4 22.76 28.3467 22.44 33.04H3.56C3.88 26.32 5.58667 20.5067 8.68 15.6C11.88 10.5867 16.2 6.74666 21.64 4.07999C27.08 1.41333 33.4267 0.079998 40.68 0.079998C48.2533 0.079998 54.6533 1.41333 59.88 4.07999C65.1067 6.74666 69.0533 10.32 71.72 14.8C74.4933 19.28 75.88 24.1867 75.88 29.52C75.88 33.68 75.08 37.4667 73.48 40.88C71.88 44.2933 69.6933 47.1733 66.92 49.52C64.2533 51.76 61.1067 53.4133 57.48 54.48C61.64 55.3333 65.32 56.9867 68.52 59.44C71.8267 61.8933 74.3867 65.04 76.2 68.88C78.12 72.6133 79.08 76.9867 79.08 82C79.08 88.08 77.5867 93.7333 74.6 98.96C71.72 104.08 67.4 108.187 61.64 111.28C55.9867 114.373 49 115.92 40.68 115.92Z" fill="url(#paint0_linear_517_202)"/>
<defs>
<linearGradient id="paint0_linear_517_202" x1="41" y1="2" x2="41" y2="106.533" gradientUnits="userSpaceOnUse">
<stop stop-color="#00CA61"/>
<stop offset="1" stop-color="#00CA61" stop-opacity="0"/>
</linearGradient>
</defs>
</svg>
