<svg width="40" height="40" viewBox="0 0 40 40" fill="none" xmlns="http://www.w3.org/2000/svg">
<path d="M17.5 12.5C17.5 12.0055 17.6466 11.5222 17.9213 11.1111C18.196 10.7 18.5865 10.3795 19.0433 10.1903C19.5001 10.0011 20.0028 9.95157 20.4877 10.048C20.9727 10.1445 21.4181 10.3826 21.7678 10.7322C22.1174 11.0819 22.3555 11.5273 22.452 12.0123C22.5484 12.4972 22.4989 12.9999 22.3097 13.4567C22.1205 13.9135 21.8 14.304 21.3889 14.5787C20.9778 14.8534 20.4945 15 20 15C19.337 15 18.7011 14.7366 18.2322 14.2678C17.7634 13.7989 17.5 13.163 17.5 12.5ZM10 12.5C10 9.84784 11.0536 7.3043 12.9289 5.42893C14.8043 3.55357 17.3478 2.5 20 2.5C22.6522 2.5 25.1957 3.55357 27.0711 5.42893C28.9464 7.3043 30 9.84784 30 12.5C30 21.8672 21.0031 27.1156 20.625 27.3359C20.4361 27.4439 20.2223 27.5007 20.0047 27.5007C19.7871 27.5007 19.5733 27.4439 19.3844 27.3359C18.9969 27.1156 10 21.875 10 12.5ZM12.5 12.5C12.5 19.0938 18.1 23.4703 20 24.7656C21.8984 23.4719 27.5 19.0938 27.5 12.5C27.5 10.5109 26.7098 8.60322 25.3033 7.1967C23.8968 5.79018 21.9891 5 20 5C18.0109 5 16.1032 5.79018 14.6967 7.1967C13.2902 8.60322 12.5 10.5109 12.5 12.5ZM31.6828 23.0672C31.3752 22.9655 31.0401 22.9873 30.7482 23.128C30.4563 23.2686 30.2304 23.5171 30.1181 23.821C30.0059 24.125 30.016 24.4606 30.1464 24.7572C30.2768 25.0538 30.5173 25.2882 30.8172 25.4109C33.3969 26.3656 35 27.6437 35 28.75C35 30.8375 29.2938 33.75 20 33.75C10.7063 33.75 5 30.8375 5 28.75C5 27.6437 6.60313 26.3656 9.18281 25.4125C9.48267 25.2898 9.72316 25.0554 9.85358 24.7588C9.98399 24.4622 9.99414 24.1265 9.88188 23.8226C9.76963 23.5186 9.54374 23.2702 9.25184 23.1295C8.95994 22.9889 8.62484 22.9671 8.31719 23.0688C4.56562 24.4516 2.5 26.4703 2.5 28.75C2.5 33.6219 11.5172 36.25 20 36.25C28.4828 36.25 37.5 33.6219 37.5 28.75C37.5 26.4703 35.4344 24.4516 31.6828 23.0672Z" fill="#00CA61"/>
</svg>
