<svg width="40" height="40" viewBox="0 0 40 40" fill="none" xmlns="http://www.w3.org/2000/svg">
<path d="M13.75 17.5C13.75 17.1685 13.8817 16.8505 14.1161 16.6161C14.3505 16.3817 14.6685 16.25 15 16.25H27.5C27.8315 16.25 28.1495 16.3817 28.3839 16.6161C28.6183 16.8505 28.75 17.1685 28.75 17.5C28.75 17.8315 28.6183 18.1495 28.3839 18.3839C28.1495 18.6183 27.8315 18.75 27.5 18.75H15C14.6685 18.75 14.3505 18.6183 14.1161 18.3839C13.8817 18.1495 13.75 17.8315 13.75 17.5ZM15 23.75H27.5C27.8315 23.75 28.1495 23.6183 28.3839 23.3839C28.6183 23.1495 28.75 22.8315 28.75 22.5C28.75 22.1685 28.6183 21.8505 28.3839 21.6161C28.1495 21.3817 27.8315 21.25 27.5 21.25H15C14.6685 21.25 14.3505 21.3817 14.1161 21.6161C13.8817 21.8505 13.75 22.1685 13.75 22.5C13.75 22.8315 13.8817 23.1495 14.1161 23.3839C14.3505 23.6183 14.6685 23.75 15 23.75ZM36.25 10V28.75C36.25 29.7446 35.8549 30.6984 35.1516 31.4017C34.4484 32.1049 33.4946 32.5 32.5 32.5H5C4.00841 32.5 3.05718 32.1073 2.35441 31.4077C1.65164 30.7082 1.25454 29.7588 1.25 28.7672V13.75C1.25 13.4185 1.3817 13.1005 1.61612 12.8661C1.85054 12.6317 2.16848 12.5 2.5 12.5C2.83152 12.5 3.14946 12.6317 3.38388 12.8661C3.6183 13.1005 3.75 13.4185 3.75 13.75V28.75C3.75 29.0815 3.8817 29.3995 4.11612 29.6339C4.35054 29.8683 4.66848 30 5 30C5.33152 30 5.64946 29.8683 5.88388 29.6339C6.1183 29.3995 6.25 29.0815 6.25 28.75V10C6.25 9.33696 6.51339 8.70107 6.98223 8.23223C7.45107 7.76339 8.08696 7.5 8.75 7.5H33.75C34.413 7.5 35.0489 7.76339 35.5178 8.23223C35.9866 8.70107 36.25 9.33696 36.25 10ZM33.75 10H8.75V28.75C8.75062 29.1758 8.67822 29.5986 8.53594 30H32.5C32.8315 30 33.1495 29.8683 33.3839 29.6339C33.6183 29.3995 33.75 29.0815 33.75 28.75V10Z" fill="#00CA61"/>
</svg>
