<svg width="32" height="28" viewBox="0 0 32 28" fill="none" xmlns="http://www.w3.org/2000/svg">
<path d="M28.75 5H3.75C3.41848 5 3.10054 4.8683 2.86612 4.63388C2.6317 4.39946 2.5 4.08152 2.5 3.75C2.5 3.41848 2.6317 3.10054 2.86612 2.86612C3.10054 2.6317 3.41848 2.5 3.75 2.5H25C25.3315 2.5 25.6495 2.3683 25.8839 2.13388C26.1183 1.89946 26.25 1.58152 26.25 1.25C26.25 0.918479 26.1183 0.600537 25.8839 0.366117C25.6495 0.131696 25.3315 0 25 0H3.75C2.75544 0 1.80161 0.395088 1.09835 1.09835C0.395088 1.80161 0 2.75544 0 3.75V23.75C0 24.7446 0.395088 25.6984 1.09835 26.4017C1.80161 27.1049 2.75544 27.5 3.75 27.5H28.75C29.413 27.5 30.0489 27.2366 30.5178 26.7678C30.9866 26.2989 31.25 25.663 31.25 25V7.5C31.25 6.83696 30.9866 6.20107 30.5178 5.73223C30.0489 5.26339 29.413 5 28.75 5ZM28.75 25H3.75C3.41848 25 3.10054 24.8683 2.86612 24.6339C2.6317 24.3995 2.5 24.0815 2.5 23.75V7.28594C2.90137 7.42822 3.32416 7.50062 3.75 7.5H28.75V25ZM21.25 15.625C21.25 15.2542 21.36 14.8916 21.566 14.5833C21.772 14.275 22.0649 14.0346 22.4075 13.8927C22.7501 13.7508 23.1271 13.7137 23.4908 13.786C23.8545 13.8584 24.1886 14.037 24.4508 14.2992C24.713 14.5614 24.8916 14.8955 24.964 15.2592C25.0363 15.6229 24.9992 15.9999 24.8573 16.3425C24.7154 16.6851 24.475 16.978 24.1667 17.184C23.8584 17.39 23.4958 17.5 23.125 17.5C22.6277 17.5 22.1508 17.3025 21.7992 16.9508C21.4475 16.5992 21.25 16.1223 21.25 15.625Z" fill="#00DF82"/>
</svg>
