<svg width="188" height="34" viewBox="0 0 188 34" fill="none" xmlns="http://www.w3.org/2000/svg">
<path d="M16.8389 31.1763V33.8765H8.17188C7.2688 33.2695 6.42288 32.5844 5.64258 31.8315L6.02344 31.1763H16.8389ZM31.8223 31.1763L32.2832 31.9751C31.5449 32.6716 30.7496 33.3083 29.9043 33.8765H20.999V31.1763H31.8223ZM20.502 0.123535C30.2845 0.581273 38.0757 8.65658 38.0762 18.5522C38.0762 22.2605 36.9806 25.7128 35.0977 28.605L31.3057 22.0815C31.1245 21.7693 30.8611 21.5095 30.543 21.3286C30.2248 21.1478 29.8626 21.0523 29.4941 21.0522H8.34473C7.97617 21.0522 7.6142 21.1478 7.2959 21.3286C6.97766 21.5095 6.71439 21.7692 6.5332 22.0815L2.85254 28.4116C1.04616 25.5596 0 22.1779 0 18.5522C0.000422832 8.74121 7.65856 0.71981 17.3232 0.137207C17.0119 0.499845 16.839 0.958668 16.8389 1.43506V3.50342C16.839 4.04032 17.0582 4.55541 17.4482 4.93506C17.8383 5.31468 18.3674 5.52776 18.9189 5.52783C19.4707 5.52783 20.0005 5.3148 20.3906 4.93506C20.7806 4.55542 20.9989 4.04025 20.999 3.50342V1.43506C20.9989 0.952358 20.8211 0.488374 20.502 0.123535ZM16.8389 25.1021V27.1265H8.38281L9.55859 25.1021H16.8389ZM28.2803 25.1021L29.4629 27.1265H20.999V25.1021H28.2803ZM4.35742 14.3022C3.80576 14.3023 3.2768 14.5163 2.88672 14.896C2.49671 15.2757 2.27734 15.7907 2.27734 16.3276C2.27742 16.8646 2.49666 17.3796 2.88672 17.7593C3.27679 18.1389 3.80581 18.352 4.35742 18.3521H5.74414C6.29585 18.3521 6.8257 18.139 7.21582 17.7593C7.60575 17.3796 7.82415 16.8645 7.82422 16.3276C7.82422 15.7908 7.60565 15.2757 7.21582 14.896C6.8257 14.5163 6.29585 14.3022 5.74414 14.3022H4.35742ZM18.9189 7.55322C16.5283 7.55329 14.2354 8.4771 12.5449 10.1226C10.8544 11.7681 9.90527 14.0005 9.90527 16.3276C9.90535 16.8645 10.1237 17.3796 10.5137 17.7593C10.9038 18.139 11.4336 18.3521 11.9854 18.3521C12.537 18.352 13.066 18.1389 13.4561 17.7593C13.8461 17.3796 14.0654 16.8646 14.0654 16.3276C14.0654 15.0746 14.577 13.8729 15.4873 12.9868C16.3975 12.1008 17.6317 11.6031 18.9189 11.603C20.2063 11.603 21.4413 12.1008 22.3516 12.9868C23.2617 13.8729 23.7734 15.0747 23.7734 16.3276C23.7735 16.8646 23.9928 17.3796 24.3828 17.7593C24.7729 18.1389 25.3019 18.3521 25.8535 18.3521C26.4051 18.352 26.9342 18.1389 27.3242 17.7593C27.7143 17.3796 27.9335 16.8646 27.9336 16.3276C27.9336 14.0005 26.9835 11.7681 25.293 10.1226C23.6025 8.47721 21.3095 7.55322 18.9189 7.55322ZM32.0938 14.3022C31.5421 14.3023 31.0131 14.5163 30.623 14.896C30.2331 15.2757 30.0137 15.7907 30.0137 16.3276C30.0137 16.8646 30.233 17.3796 30.623 17.7593C31.0131 18.1389 31.5422 18.352 32.0938 18.3521H33.4805C34.0322 18.3521 34.562 18.139 34.9521 17.7593C35.3421 17.3796 35.5615 16.8645 35.5615 16.3276C35.5615 15.7908 35.342 15.2757 34.9521 14.896C34.562 14.5163 34.0322 14.3022 33.4805 14.3022H32.0938ZM8.62402 4.27393C8.35037 4.27393 8.079 4.32629 7.82617 4.42822C7.5735 4.53011 7.34382 4.67947 7.15039 4.86768C6.75964 5.24803 6.5401 5.76435 6.54004 6.30225C6.54004 6.84021 6.75959 7.35642 7.15039 7.73682L8.13184 8.68994C8.3253 8.87824 8.55486 9.02747 8.80762 9.12939C9.0603 9.23127 9.331 9.28461 9.60449 9.28467C9.87815 9.28467 10.1495 9.23133 10.4023 9.12939C10.6551 9.02747 10.8847 8.87824 11.0781 8.68994C11.2716 8.50159 11.4256 8.27784 11.5303 8.03174C11.6349 7.78573 11.6885 7.52163 11.6885 7.25537C11.6884 6.98928 11.6348 6.72583 11.5303 6.47998C11.4256 6.23388 11.2716 6.01013 11.0781 5.82178L10.0977 4.86768C9.90416 4.67934 9.6737 4.53015 9.4209 4.42822C9.16825 4.32641 8.89746 4.27396 8.62402 4.27393ZM29.2178 4.27393C28.6652 4.27401 28.1349 4.48735 27.7441 4.86768L26.7637 5.82178C26.4724 6.10497 26.2738 6.46589 26.1934 6.85889C26.113 7.25166 26.1541 7.6588 26.3115 8.02881C26.4691 8.39901 26.7367 8.71551 27.0791 8.93799C27.4215 9.16038 27.8238 9.27912 28.2354 9.27881L28.2402 9.28369C28.5136 9.28368 28.7846 9.23131 29.0371 9.12939C29.2896 9.02748 29.5188 8.87817 29.7119 8.68994L30.6914 7.73682C30.8849 7.54846 31.0388 7.32471 31.1436 7.07861C31.2482 6.83256 31.3018 6.56857 31.3018 6.30225C31.3017 6.03594 31.2483 5.77191 31.1436 5.52588C31.0388 5.27986 30.8849 5.05598 30.6914 4.86768C30.498 4.67948 30.2683 4.5301 30.0156 4.42822C29.7628 4.32629 29.4914 4.27393 29.2178 4.27393Z" fill="#22C55E"/>
<path d="M53.7634 29.2857C51.428 29.2857 49.4379 28.8527 47.7931 27.9868C46.1482 27.1011 44.8891 25.8711 44.0159 24.2967C43.163 22.7025 42.7366 20.8525 42.7366 18.7467C42.7366 16.6212 43.163 14.7417 44.0159 13.1082C44.8891 11.4747 46.1279 10.2053 47.7321 9.29997C49.3364 8.37498 51.2453 7.91248 53.4588 7.91248C55.9972 7.91248 58.0888 8.5029 59.7337 9.68374C61.3989 10.8449 62.4752 12.4587 62.9625 14.5252H58.2106C57.8857 13.6396 57.3273 12.9507 56.5353 12.4587C55.7433 11.9667 54.7178 11.7207 53.4588 11.7207C52.0982 11.7207 50.9407 12.0061 49.9862 12.5768C49.0318 13.1475 48.3007 13.9643 47.7931 15.027C47.3057 16.0701 47.062 17.3198 47.062 18.7762C47.062 20.2129 47.3158 21.443 47.8235 22.4663C48.3515 23.4897 49.113 24.277 50.1081 24.828C51.1031 25.3594 52.3317 25.6251 53.7938 25.6251C55.4793 25.6251 56.8095 25.1823 57.7842 24.2967C58.7589 23.3913 59.2463 22.1416 59.2463 20.5475H53.4588V17.4773H63.5717V19.2781C63.5717 21.4823 63.1453 23.3323 62.2924 24.828C61.4395 26.3041 60.2718 27.416 58.7894 28.1639C57.3273 28.9118 55.6519 29.2857 53.7634 29.2857Z" fill="#16A34A"/>
<path d="M64.7109 28.9315V14.289H68.9754V16.5031C69.3816 15.7749 69.8893 15.2042 70.4985 14.7909C71.1077 14.3579 71.7981 14.1414 72.5698 14.1414H74.4279V17.802H72.1434C71.392 17.802 70.7828 17.989 70.3157 18.3629C69.8486 18.7369 69.5034 19.2978 69.28 20.0456C69.077 20.7738 68.9754 21.6693 68.9754 22.732V28.9315H64.7109Z" fill="#16A34A"/>
<path d="M81.6792 29.2857C80.1156 29.2857 78.7347 28.9708 77.5366 28.341C76.3385 27.6916 75.4043 26.8059 74.7342 25.6841C74.0641 24.5427 73.729 23.2339 73.729 21.7578C73.729 20.2424 74.0539 18.8943 74.7037 17.7135C75.3739 16.5326 76.308 15.6076 77.5061 14.9385C78.7042 14.2693 80.0953 13.9348 81.6792 13.9348C83.182 13.9348 84.5121 14.2497 85.6696 14.8794C86.8271 15.5092 87.7308 16.3752 88.3806 17.4773C89.0304 18.5597 89.3554 19.7996 89.3554 21.1969C89.3554 21.3937 89.3554 21.6201 89.3554 21.8759C89.3554 22.1121 89.3351 22.3581 89.2944 22.614H76.7751V20.1342H85.0299C84.969 19.2682 84.6238 18.5794 83.9943 18.0677C83.3851 17.5363 82.6235 17.2706 81.7097 17.2706C81.0193 17.2706 80.3796 17.4183 79.7907 17.7135C79.2221 18.0087 78.7652 18.4613 78.4199 19.0714C78.095 19.6618 77.9326 20.4196 77.9326 21.3445V22.2007C77.9326 22.9485 78.0849 23.6078 78.3895 24.1786C78.7144 24.7296 79.151 25.1626 79.6993 25.4775C80.2679 25.7727 80.9177 25.9203 81.6488 25.9203C82.3595 25.9203 82.9586 25.7727 83.446 25.4775C83.9333 25.1626 84.309 24.7591 84.573 24.2671H88.9289C88.6446 25.2118 88.1572 26.0679 87.4668 26.8355C86.7967 27.5833 85.9641 28.1836 84.969 28.6362C83.9943 29.0692 82.8977 29.2857 81.6792 29.2857Z" fill="#16A34A"/>
<path d="M98.0257 29.2857C96.4621 29.2857 95.0812 28.9708 93.8831 28.341C92.685 27.6916 91.7508 26.8059 91.0807 25.6841C90.4105 24.5427 90.0755 23.2339 90.0755 21.7578C90.0755 20.2424 90.4004 18.8943 91.0502 17.7135C91.7204 16.5326 92.6545 15.6076 93.8526 14.9385C95.0507 14.2693 96.4418 13.9348 98.0257 13.9348C99.5285 13.9348 100.859 14.2497 102.016 14.8794C103.174 15.5092 104.077 16.3752 104.727 17.4773C105.377 18.5597 105.702 19.7996 105.702 21.1969C105.702 21.3937 105.702 21.6201 105.702 21.8759C105.702 22.1121 105.682 22.3581 105.641 22.614H93.1216V20.1342H101.376C101.316 19.2682 100.97 18.5794 100.341 18.0677C99.7315 17.5363 98.97 17.2706 98.0562 17.2706C97.3658 17.2706 96.7261 17.4183 96.1372 17.7135C95.5686 18.0087 95.1117 18.4613 94.7664 19.0714C94.4415 19.6618 94.2791 20.4196 94.2791 21.3445V22.2007C94.2791 22.9485 94.4314 23.6078 94.736 24.1786C95.0609 24.7296 95.4975 25.1626 96.0458 25.4775C96.6144 25.7727 97.2642 25.9203 97.9953 25.9203C98.706 25.9203 99.3051 25.7727 99.7925 25.4775C100.28 25.1626 100.656 24.7591 100.92 24.2671H105.275C104.991 25.2118 104.504 26.0679 103.813 26.8355C103.143 27.5833 102.311 28.1836 101.316 28.6362C100.341 29.0692 99.2442 29.2857 98.0257 29.2857Z" fill="#16A34A"/>
<path d="M106.879 28.9315V14.289H111.143V16.4441C111.631 15.6765 112.291 15.0664 113.123 14.6138C113.976 14.1611 114.971 13.9348 116.108 13.9348C118.017 13.9348 119.479 14.5252 120.495 15.706C121.51 16.8672 122.018 18.5499 122.018 20.7541V28.9315H117.753V21.1379C117.753 19.9374 117.5 19.0222 116.992 18.3924C116.504 17.743 115.723 17.4183 114.646 17.4183C113.631 17.4183 112.788 17.7725 112.118 18.481C111.468 19.1698 111.143 20.1342 111.143 21.3741V28.9315H106.879Z" fill="#16A34A"/>
<path d="M129.339 28.9315V11.6026H123.125V8.26673H139.787V11.6026H133.603V28.9315H129.339Z" fill="#16A34A"/>
<path d="M144.834 29.2857C143.271 29.2857 141.89 28.9708 140.692 28.341C139.493 27.6916 138.559 26.8059 137.889 25.6841C137.219 24.5427 136.884 23.2339 136.884 21.7578C136.884 20.2424 137.209 18.8943 137.859 17.7135C138.529 16.5326 139.463 15.6076 140.661 14.9385C141.859 14.2693 143.25 13.9348 144.834 13.9348C146.337 13.9348 147.667 14.2497 148.825 14.8794C149.982 15.5092 150.886 16.3752 151.536 17.4773C152.185 18.5597 152.51 19.7996 152.51 21.1969C152.51 21.3937 152.51 21.6201 152.51 21.8759C152.51 22.1121 152.49 22.3581 152.449 22.614H139.93V20.1342H148.185C148.124 19.2682 147.779 18.5794 147.149 18.0677C146.54 17.5363 145.778 17.2706 144.865 17.2706C144.174 17.2706 143.535 17.4183 142.946 17.7135C142.377 18.0087 141.92 18.4613 141.575 19.0714C141.25 19.6618 141.088 20.4196 141.088 21.3445V22.2007C141.088 22.9485 141.24 23.6078 141.544 24.1786C141.869 24.7296 142.306 25.1626 142.854 25.4775C143.423 25.7727 144.073 25.9203 144.804 25.9203C145.514 25.9203 146.114 25.7727 146.601 25.4775C147.088 25.1626 147.464 24.7591 147.728 24.2671H152.084C151.8 25.2118 151.312 26.0679 150.622 26.8355C149.952 27.5833 149.119 28.1836 148.124 28.6362C147.149 29.0692 146.053 29.2857 144.834 29.2857Z" fill="#16A34A"/>
<path d="M161.15 29.2857C159.587 29.2857 158.206 28.961 157.008 28.3115C155.809 27.6424 154.865 26.7371 154.175 25.5956C153.505 24.4344 153.169 23.106 153.169 21.6102C153.169 20.1145 153.505 18.7959 154.175 17.6544C154.865 16.4933 155.809 15.5879 157.008 14.9385C158.206 14.2693 159.587 13.9348 161.15 13.9348C163.1 13.9348 164.745 14.4366 166.085 15.4403C167.425 16.4244 168.288 17.7922 168.674 19.5438H164.166C163.983 18.914 163.618 18.4121 163.069 18.0382C162.521 17.6643 161.871 17.4773 161.12 17.4773C160.45 17.4773 159.84 17.6446 159.292 17.9791C158.744 18.3137 158.307 18.7861 157.982 19.3962C157.678 20.0063 157.525 20.7443 157.525 21.6102C157.525 22.4565 157.678 23.1945 157.982 23.8243C158.307 24.4541 158.744 24.9363 159.292 25.2708C159.84 25.6054 160.45 25.7727 161.12 25.7727C161.871 25.7727 162.521 25.5956 163.069 25.2413C163.618 24.8674 163.983 24.3459 164.166 23.6767H168.674C168.309 25.3692 167.445 26.7272 166.085 27.7506C164.745 28.774 163.1 29.2857 161.15 29.2857Z" fill="#16A34A"/>
<path d="M169.766 28.9315V7.67631H174.031V16.4441C174.518 15.6765 175.188 15.0664 176.041 14.6138C176.914 14.1611 177.909 13.9348 179.026 13.9348C180.915 13.9348 182.367 14.5252 183.382 15.706C184.397 16.8672 184.905 18.5499 184.905 20.7541V28.9315H180.671V21.1379C180.671 19.9374 180.427 19.0222 179.94 18.3924C179.453 17.743 178.671 17.4183 177.595 17.4183C176.559 17.4183 175.706 17.7725 175.036 18.481C174.366 19.1698 174.031 20.1342 174.031 21.3741V28.9315H169.766Z" fill="#16A34A"/>
<path d="M184.312 10.4808C183.599 10.4808 182.963 10.3319 182.405 10.034C181.847 9.7246 181.407 9.30066 181.086 8.76215C180.777 8.21218 180.623 7.59346 180.623 6.906C180.623 6.20707 180.777 5.59409 181.086 5.06703C181.407 4.52852 181.847 4.10458 182.405 3.79522C182.963 3.48586 183.599 3.33118 184.312 3.33118C185.036 3.33118 185.672 3.48586 186.218 3.79522C186.777 4.10458 187.21 4.52852 187.519 5.06703C187.84 5.59409 188 6.20707 188 6.906C188 7.59346 187.84 8.21218 187.519 8.76215C187.21 9.30066 186.777 9.7246 186.218 10.034C185.672 10.3319 185.036 10.4808 184.312 10.4808ZM184.312 9.7246C185.179 9.7246 185.868 9.46107 186.379 8.93401C186.901 8.40696 187.163 7.73095 187.163 6.906C187.163 6.08104 186.901 5.41076 186.379 4.89516C185.868 4.36811 185.179 4.10458 184.312 4.10458C183.444 4.10458 182.749 4.36811 182.227 4.89516C181.716 5.41076 181.46 6.08104 181.46 6.906C181.46 7.73095 181.716 8.40696 182.227 8.93401C182.749 9.46107 183.444 9.7246 184.312 9.7246ZM182.815 8.71059V5.03266H184.632C185.036 5.03266 185.357 5.14151 185.595 5.3592C185.832 5.56544 185.951 5.84043 185.951 6.18416C185.951 6.56226 185.814 6.86017 185.541 7.07786C185.684 7.16952 185.779 7.2841 185.826 7.42159C185.886 7.55909 185.921 7.71377 185.933 7.88563L186.004 8.71059H185.06L184.989 8.09187C184.953 7.78251 184.906 7.582 184.846 7.49034C184.787 7.38722 184.632 7.33566 184.383 7.33566H183.848V8.71059H182.815ZM183.83 6.61382H184.508C184.626 6.61382 184.727 6.58518 184.811 6.52789C184.894 6.4706 184.935 6.37321 184.935 6.23572C184.935 6.10968 184.894 6.02375 184.811 5.97792C184.727 5.92063 184.626 5.89199 184.508 5.89199H183.83V6.61382Z" fill="#16A34A"/>
</svg>
