<svg width="78" height="114" viewBox="0 0 78 114" fill="none" xmlns="http://www.w3.org/2000/svg">
<path d="M0.64 114V100.08C7.78667 94.4267 14.6133 88.7733 21.12 83.12C27.6267 77.4667 33.4933 71.8667 38.72 66.32C43.9467 60.7733 48.0533 55.3333 51.04 50C54.0267 44.6667 55.52 39.5467 55.52 34.64C55.52 31.44 54.9333 28.4533 53.76 25.68C52.5867 22.9067 50.72 20.6667 48.16 18.96C45.7067 17.2533 42.4 16.4 38.24 16.4C34.1867 16.4 30.72 17.3067 27.84 19.12C25.0667 20.9333 22.9867 23.3867 21.6 26.48C20.2133 29.4667 19.52 32.88 19.52 36.72H0.96C1.17333 28.6133 2.93333 21.84 6.24 16.4C9.54667 10.96 14.0267 6.90666 19.68 4.23999C25.3333 1.46666 31.68 0.079998 38.72 0.079998C46.2933 0.079998 52.7467 1.46666 58.08 4.23999C63.4133 7.01333 67.52 10.9067 70.4 15.92C73.28 20.9333 74.72 26.8533 74.72 33.68C74.72 38.6933 73.76 43.6533 71.84 48.56C70.0267 53.36 67.4667 58.0533 64.16 62.64C60.8533 67.12 57.12 71.4933 52.96 75.76C48.9067 79.92 44.6933 83.92 40.32 87.76C35.9467 91.4933 31.7333 94.96 27.68 98.16H77.76V114H0.64Z" fill="url(#paint0_linear_517_206)"/>
<defs>
<linearGradient id="paint0_linear_517_206" x1="38.5" y1="2" x2="38.5" y2="106.533" gradientUnits="userSpaceOnUse">
<stop stop-color="#00CA61"/>
<stop offset="1" stop-color="#00CA61" stop-opacity="0"/>
</linearGradient>
</defs>
</svg>
