<svg width="23" height="17" viewBox="0 0 23 17" fill="none" xmlns="http://www.w3.org/2000/svg">
<path d="M22.0624 7.98989C22.0624 7.93572 22.0624 7.87416 22.06 7.80276C22.0575 7.60331 22.0526 7.37924 22.0476 7.1404C22.0279 6.45342 21.9935 5.7689 21.9393 5.12378C21.8654 4.23489 21.7571 3.49374 21.6094 2.93726C21.4534 2.35653 21.1479 1.82689 20.7231 1.40127C20.2984 0.97566 19.7693 0.668985 19.1889 0.5119C18.4921 0.324766 17.128 0.209038 15.2074 0.137631C14.2939 0.103159 13.3163 0.0809984 12.3388 0.0686869C11.9965 0.0637623 11.6789 0.0613002 11.3933 0.0588379H10.6694C10.3837 0.0613002 10.0661 0.0637623 9.72385 0.0686869C8.74632 0.0809984 7.76879 0.103159 6.85528 0.137631C4.93469 0.2115 3.56811 0.327228 2.87374 0.5119C2.29314 0.668599 1.76391 0.975145 1.3391 1.40082C0.914295 1.82649 0.608826 2.35634 0.453307 2.93726C0.303107 3.49374 0.197228 4.23489 0.123359 5.12378C0.0691884 5.7689 0.0347162 6.45342 0.0150179 7.1404C0.00763099 7.37924 0.0051687 7.60331 0.0027064 7.80276C0.0027064 7.87416 0.000244141 7.93572 0.000244141 7.98989V8.12778C0.000244141 8.18195 0.000244103 8.24351 0.0027064 8.31492C0.0051687 8.51436 0.0100933 8.73843 0.0150179 8.97727C0.0347162 9.66425 0.0691884 10.3488 0.123359 10.9939C0.197228 11.8828 0.305569 12.6239 0.453307 13.1804C0.768481 14.3599 1.6943 15.2906 2.87374 15.6058C3.56811 15.7929 4.93469 15.9086 6.85528 15.98C7.76879 16.0145 8.74632 16.0367 9.72385 16.049C10.0661 16.0539 10.3837 16.0564 10.6694 16.0588H11.3933C11.6789 16.0564 11.9965 16.0539 12.3388 16.049C13.3163 16.0367 14.2939 16.0145 15.2074 15.98C17.128 15.9062 18.4945 15.7904 19.1889 15.6058C20.3684 15.2906 21.2942 14.3623 21.6094 13.1804C21.7596 12.6239 21.8654 11.8828 21.9393 10.9939C21.9935 10.3488 22.0279 9.66425 22.0476 8.97727C22.055 8.73843 22.0575 8.51436 22.06 8.31492C22.06 8.24351 22.0624 8.18195 22.0624 8.12778V7.98989ZM20.2896 8.11793C20.2896 8.16964 20.2896 8.22627 20.2871 8.29276C20.2846 8.48481 20.2797 8.69657 20.2748 8.92557C20.2576 9.58054 20.2231 10.2355 20.1714 10.8437C20.1049 11.6366 20.0113 12.2866 19.8956 12.7224C19.7429 13.2912 19.2948 13.7418 18.7285 13.892C18.2114 14.0299 16.9088 14.1407 15.1384 14.2072C14.2422 14.2417 13.2769 14.2638 12.3142 14.2761C11.9769 14.2811 11.6641 14.2835 11.3834 14.2835H10.6792L9.74847 14.2761C8.78572 14.2638 7.82296 14.2417 6.92422 14.2072C5.15383 14.1382 3.84881 14.0299 3.33419 13.892C2.76786 13.7394 2.31973 13.2912 2.16706 12.7224C2.05134 12.2866 1.95777 11.6366 1.89129 10.8437C1.83958 10.2355 1.80757 9.58054 1.78787 8.92557C1.78048 8.69657 1.77802 8.48235 1.77556 8.29276C1.77556 8.22627 1.7731 8.16718 1.7731 8.11793V7.99974C1.7731 7.94803 1.7731 7.8914 1.77556 7.82492C1.77802 7.63286 1.78295 7.4211 1.78787 7.19211C1.80511 6.53714 1.83958 5.88217 1.89129 5.27398C1.95777 4.48112 2.05134 3.83108 2.16706 3.39525C2.31973 2.82646 2.76786 2.37586 3.33419 2.22566C3.85127 2.08777 5.15383 1.97697 6.92422 1.91048C7.8205 1.87601 8.78572 1.85385 9.74847 1.84154C10.0858 1.83662 10.3985 1.83415 10.6792 1.83415H11.3834L12.3142 1.84154C13.2769 1.85385 14.2397 1.87601 15.1384 1.91048C16.9088 1.97943 18.2138 2.08777 18.7285 2.22566C19.2948 2.37832 19.7429 2.82646 19.8956 3.39525C20.0113 3.83108 20.1049 4.48112 20.1714 5.27398C20.2231 5.88217 20.2551 6.53714 20.2748 7.19211C20.2822 7.4211 20.2846 7.63532 20.2871 7.82492C20.2871 7.8914 20.2896 7.9505 20.2896 7.99974V8.11793ZM8.83989 11.3583L14.5524 8.03421L8.83989 4.75936V11.3583Z" fill="white"/>
</svg>
