<svg width="17" height="17" viewBox="0 0 17 17" fill="none" xmlns="http://www.w3.org/2000/svg">
<path d="M8.13135 0.0588379C5.95658 0.0588379 5.68554 0.0693392 4.83443 0.105344C3.97983 0.147349 3.40176 0.279866 2.89169 0.47789C2.35786 0.679426 1.8744 0.994963 1.47502 1.40251C1.06634 1.80095 0.750623 2.28468 0.5504 2.81918C0.352375 3.32925 0.219859 3.90732 0.177853 4.76193C0.139349 5.61353 0.131348 5.88407 0.131348 8.05884C0.131348 10.2336 0.141849 10.5046 0.177853 11.3558C0.219859 12.2079 0.352375 12.7884 0.5504 13.2985C0.751935 13.8323 1.06747 14.3158 1.47502 14.7152C1.87346 15.1239 2.35719 15.4396 2.89169 15.6398C3.40176 15.8353 3.98233 15.9703 4.83443 16.0123C5.68604 16.0508 5.95658 16.0588 8.13135 16.0588C10.3061 16.0588 10.5772 16.0483 11.4283 16.0123C12.2804 15.9703 12.8609 15.8348 13.371 15.6398C13.9048 15.4383 14.3883 15.1227 14.7877 14.7152C15.1969 14.3172 15.5127 13.8333 15.7123 13.2985C15.9078 12.7884 16.0428 12.2079 16.0848 11.3558C16.1233 10.5041 16.1313 10.2336 16.1313 8.05884C16.1313 5.88407 16.1208 5.61303 16.0848 4.76193C16.0428 3.90982 15.9073 3.32625 15.7123 2.81918C15.5108 2.28535 15.1952 1.80189 14.7877 1.40251C14.3897 0.993299 13.9058 0.677505 13.371 0.47789C12.8609 0.279866 12.2804 0.147349 11.4283 0.105344C10.5767 0.0668389 10.3061 0.0588379 8.13135 0.0588379ZM8.13135 1.49902C10.2671 1.49902 10.5221 1.50952 11.3663 1.54552C12.1448 1.58203 12.5689 1.71204 12.8504 1.82206C13.1985 1.95054 13.5135 2.15503 13.7726 2.42063C14.0377 2.67858 14.2414 2.99288 14.3686 3.34025C14.4786 3.62178 14.6087 4.04584 14.6452 4.82443C14.6812 5.66854 14.6917 5.92407 14.6917 8.05934C14.6917 10.1946 14.6812 10.4501 14.6422 11.2942C14.6002 12.0728 14.4701 12.4969 14.3606 12.7784C14.2091 13.154 14.0401 13.4165 13.7611 13.7005C13.5011 13.9645 13.1863 14.168 12.8389 14.2966C12.5609 14.4066 12.1308 14.5366 11.3492 14.5732C10.5006 14.6092 10.2506 14.6197 8.10934 14.6197C5.96808 14.6197 5.71855 14.6092 4.86894 14.5702C4.09034 14.5281 3.66079 14.3981 3.37925 14.2886C2.99921 14.1371 2.73867 13.9681 2.45964 13.689C2.1781 13.4075 1.99908 13.1395 1.86106 12.7669C1.74905 12.4889 1.62103 12.0588 1.57953 11.2772C1.55103 10.4386 1.53752 10.1786 1.53752 8.04734C1.53752 5.91707 1.55103 5.65654 1.57953 4.80743C1.62103 4.02583 1.74905 3.59678 1.86106 3.31775C1.99908 2.9372 2.1786 2.67717 2.45964 2.39563C2.73817 2.11709 2.99921 1.93707 3.37925 1.79606C3.66079 1.68654 4.07984 1.55653 4.86144 1.51752C5.71004 1.48702 5.96008 1.47602 8.09834 1.47602L8.13135 1.49902ZM8.13135 3.95282C7.59195 3.95263 7.0578 4.05872 6.55943 4.26505C6.06105 4.47138 5.60822 4.77389 5.22681 5.1553C4.8454 5.53671 4.54289 5.98954 4.33656 6.48792C4.13023 6.98629 4.02414 7.52044 4.02433 8.05984C4.02414 8.59923 4.13023 9.13338 4.33656 9.63176C4.54289 10.1301 4.8454 10.583 5.22681 10.9644C5.60822 11.3458 6.06105 11.6483 6.55943 11.8546C7.0578 12.061 7.59195 12.167 8.13135 12.1669C8.67074 12.167 9.20489 12.061 9.70327 11.8546C10.2016 11.6483 10.6545 11.3458 11.0359 10.9644C11.4173 10.583 11.7198 10.1301 11.9261 9.63176C12.1325 9.13338 12.2386 8.59923 12.2384 8.05984C12.2386 7.52044 12.1325 6.98629 11.9261 6.48792C11.7198 5.98954 11.4173 5.53671 11.0359 5.1553C10.6545 4.77389 10.2016 4.47138 9.70327 4.26505C9.20489 4.05872 8.67074 3.95263 8.13135 3.95282ZM8.13135 10.7267C6.65716 10.7267 5.46451 9.53402 5.46451 8.05984C5.46451 6.58565 6.65716 5.393 8.13135 5.393C9.60553 5.393 10.7982 6.58565 10.7982 8.05984C10.7982 9.53402 9.60553 10.7267 8.13135 10.7267ZM13.364 3.7888C13.3637 4.04367 13.2623 4.288 13.082 4.46813C12.9017 4.64825 12.6572 4.74942 12.4024 4.74942C12.2764 4.74942 12.1516 4.7246 12.0352 4.67638C11.9187 4.62815 11.8129 4.55747 11.7238 4.46836C11.6347 4.37925 11.564 4.27346 11.5158 4.15704C11.4676 4.04061 11.4428 3.91582 11.4428 3.7898C11.4428 3.66379 11.4676 3.539 11.5158 3.42257C11.564 3.30615 11.6347 3.20036 11.7238 3.11125C11.8129 3.02214 11.9187 2.95146 12.0352 2.90323C12.1516 2.85501 12.2764 2.83018 12.4024 2.83018C12.9309 2.83018 13.364 3.26024 13.364 3.7888Z" fill="white"/>
</svg>
