<svg width="28" height="38" viewBox="0 0 28 38" fill="none" xmlns="http://www.w3.org/2000/svg">
<path d="M27.7172 17.4641C27.6699 17.2637 27.5738 17.0782 27.4375 16.9239C27.3013 16.7696 27.129 16.6514 26.936 16.5797L17.9344 13.2032L20.225 1.74534C20.2769 1.47912 20.2408 1.20326 20.1221 0.959372C20.0035 0.715487 19.8087 0.516817 19.5672 0.39334C19.3257 0.269863 19.0506 0.228279 18.7834 0.274864C18.5162 0.321449 18.2714 0.453674 18.086 0.651588L0.585989 19.4016C0.443856 19.5514 0.341035 19.734 0.286713 19.9332C0.232391 20.1324 0.228259 20.342 0.274687 20.5431C0.321114 20.7443 0.416656 20.9309 0.552775 21.0861C0.688894 21.2414 0.861351 21.3605 1.05474 21.4328L10.0594 24.8094L7.77505 36.2547C7.72318 36.5209 7.75931 36.7968 7.87798 37.0407C7.99665 37.2846 8.19142 37.4832 8.43291 37.6067C8.67439 37.7302 8.94949 37.7718 9.21668 37.7252C9.48387 37.6786 9.72866 37.5464 9.91411 37.3485L27.4141 18.5985C27.5537 18.4487 27.6543 18.2669 27.7072 18.0691C27.76 17.8713 27.7635 17.6635 27.7172 17.4641ZM11.0891 32.4375L12.7251 24.2532C12.7836 23.9629 12.7372 23.6613 12.5941 23.402C12.4511 23.1428 12.2206 22.9427 11.9438 22.8375L3.68755 19.736L16.9094 5.57034L15.2751 13.7547C15.2165 14.045 15.2629 14.3466 15.406 14.6059C15.549 14.8651 15.7795 15.0651 16.0563 15.1703L24.3063 18.2641L11.0891 32.4375Z" fill="#00DF82"/>
</svg>
