<svg width="40" height="40" viewBox="0 0 40 40" fill="none" xmlns="http://www.w3.org/2000/svg">
<rect x="40" y="40" width="40" height="40" rx="20" transform="rotate(180 40 40)" fill="#16A34A"/>
<path d="M9.28422 18.5807L27.2859 18.577L21.0069 12.2981C20.7405 12.0316 20.5908 11.6702 20.5909 11.2934C20.5909 10.9166 20.7406 10.5552 21.0071 10.2887C21.2736 10.0222 21.635 9.87247 22.0118 9.87245C22.3886 9.87242 22.75 10.0221 23.0165 10.2885L31.7233 18.9954C31.9897 19.2618 32.1394 19.6232 32.1394 20C32.1394 20.3769 31.9896 20.7383 31.7232 21.0047L23.0152 29.7127C22.7487 29.9792 22.3873 30.1289 22.0105 30.1289C21.6336 30.129 21.2722 29.9793 21.0058 29.7128C20.7394 29.4464 20.5897 29.085 20.5897 28.7082C20.5897 28.3313 20.7395 27.9699 21.0059 27.7034L27.2857 21.4237L9.28487 21.4232C9.09795 21.4232 8.91287 21.3864 8.74019 21.3149C8.56751 21.2434 8.41061 21.1385 8.27845 21.0064C8.14629 20.8742 8.04146 20.7173 7.96995 20.5446C7.89843 20.3719 7.86163 20.1869 7.86164 19.9999C7.86165 19.813 7.89848 19.6279 7.97002 19.4553C8.04156 19.2826 8.14641 19.1257 8.27858 18.9935C8.41076 18.8613 8.56767 18.7564 8.74036 18.6849C8.91306 18.6134 9.09814 18.5765 9.28505 18.5765L9.28422 18.5807Z" fill="white"/>
</svg>
