<svg width="20" height="17" viewBox="0 0 20 17" fill="none" xmlns="http://www.w3.org/2000/svg">
<path d="M19.826 1.95944C19.1017 2.27186 18.3136 2.49672 17.5018 2.58429C18.3446 2.08355 18.9758 1.29246 19.2769 0.359439C18.486 0.829946 17.6195 1.15987 16.716 1.33459C16.3383 0.930862 15.8816 0.609237 15.3742 0.389753C14.8668 0.170268 14.3197 0.0576266 13.7668 0.0588477C11.5302 0.0588477 9.73134 1.87186 9.73134 4.09671C9.73134 4.40914 9.76921 4.72157 9.83075 5.02216C6.48164 4.84701 3.49466 3.24701 1.50886 0.797309C1.14703 1.41533 0.957415 2.11903 0.959749 2.83518C0.959749 4.23636 1.67217 5.47186 2.75856 6.19849C2.11834 6.17328 1.4931 5.9973 0.933714 5.68488V5.73458C0.933714 7.69671 2.3207 9.32275 4.16922 9.69671C3.82214 9.78687 3.46509 9.83299 3.10649 9.83399C2.84377 9.83399 2.59525 9.80796 2.34436 9.77245C2.85561 11.3725 4.34436 12.5346 6.11714 12.5724C4.73016 13.6588 2.99288 14.2979 1.1065 14.2979C0.768034 14.2979 0.455608 14.2861 0.131348 14.2482C1.9207 15.3961 4.04377 16.0588 6.33016 16.0588C13.7526 16.0588 17.8142 9.90973 17.8142 4.57245C17.8142 4.39731 17.8142 4.22216 17.8023 4.04701C18.5881 3.47186 19.2769 2.75944 19.826 1.95944Z" fill="white"/>
</svg>
