<svg width="25" height="25" viewBox="0 0 25 25" fill="none" xmlns="http://www.w3.org/2000/svg">
<g clip-path="url(#clip0_183_19)">
<path d="M9.31649 1.0531C6.91851 1.88498 4.85051 3.46392 3.41622 5.55798C1.98193 7.65205 1.25697 10.1509 1.34782 12.6874C1.43866 15.224 2.34053 17.6645 3.92094 19.6506C5.50136 21.6367 7.67702 23.0637 10.1284 23.7219C12.1157 24.2347 14.1979 24.2572 16.1959 23.7875C18.0058 23.3809 19.6792 22.5113 21.0521 21.2637C22.481 19.9256 23.5182 18.2234 24.0521 16.34C24.6325 14.2919 24.7357 12.138 24.354 10.0437H13.194V14.6731H19.6571C19.5279 15.4115 19.2511 16.1162 18.8433 16.745C18.4354 17.3739 17.9048 17.9141 17.2834 18.3331C16.4941 18.8552 15.6045 19.2064 14.6715 19.3644C13.7358 19.5383 12.776 19.5383 11.8402 19.3644C10.8918 19.1683 9.99467 18.7768 9.20586 18.215C7.93864 17.318 6.98713 16.0436 6.48711 14.5737C5.97864 13.0763 5.97864 11.453 6.48711 9.9556C6.84304 8.90601 7.43142 7.95036 8.20836 7.15998C9.09747 6.23888 10.2231 5.58047 11.4618 5.257C12.7004 4.93352 14.0043 4.95747 15.2302 5.32623C16.1879 5.62021 17.0637 6.13386 17.7877 6.82623C18.5165 6.10123 19.244 5.37435 19.9702 4.6456C20.3452 4.25373 20.754 3.8806 21.1234 3.47935C20.0182 2.45087 18.7209 1.65059 17.3059 1.12435C14.7291 0.18871 11.9096 0.163566 9.31649 1.0531Z" fill="white"/>
<path d="M9.31651 1.05304C11.9094 0.162896 14.7289 0.187379 17.3059 1.12241C18.7212 1.65222 20.0179 2.45636 21.1215 3.48866C20.7465 3.88991 20.3509 4.26491 19.9684 4.65491C19.2409 5.38116 18.514 6.10491 17.7878 6.82616C17.0637 6.1338 16.188 5.62015 15.2303 5.32616C14.0047 4.95612 12.7009 4.93078 11.4619 5.25293C10.2229 5.57508 9.0966 6.23228 8.20651 7.15241C7.42958 7.94279 6.84119 8.89844 6.48526 9.94804L2.59839 6.93866C3.98965 4.17972 6.39854 2.06933 9.31651 1.05304Z" fill="#E33629"/>
<path d="M1.56727 9.91997C1.77619 8.88458 2.12303 7.88189 2.59852 6.93872L6.4854 9.9556C5.97692 11.453 5.97692 13.0763 6.4854 14.5737C5.1904 15.5737 3.89477 16.5787 2.59852 17.5887C1.40818 15.2193 1.04515 12.5197 1.56727 9.91997Z" fill="#F8BD00"/>
<path d="M13.1941 10.0417H24.3541C24.7359 12.136 24.6326 14.2899 24.0523 16.338C23.5183 18.2214 22.4812 19.9236 21.0523 21.2617C19.7979 20.283 18.5379 19.3117 17.2835 18.333C17.9054 17.9135 18.4362 17.3728 18.8441 16.7432C19.252 16.1137 19.5286 15.4083 19.6573 14.6692H13.1941C13.1923 13.128 13.1941 11.5849 13.1941 10.0417Z" fill="#587DBD"/>
<path d="M2.59662 17.5887C3.89287 16.5887 5.18849 15.5837 6.48349 14.5737C6.98451 16.0441 7.93738 17.3185 9.20599 18.215C9.99726 18.7742 10.8964 19.1625 11.846 19.355C12.7817 19.529 13.7415 19.529 14.6772 19.355C15.6102 19.1971 16.4999 18.8458 17.2891 18.3237C18.5435 19.3025 19.8035 20.2737 21.0579 21.2525C19.6852 22.5007 18.0118 23.371 16.2016 23.7781C14.2036 24.2478 12.1215 24.2253 10.1341 23.7125C8.56231 23.2928 7.09413 22.553 5.82162 21.5394C4.47473 20.47 3.37466 19.1224 2.59662 17.5887Z" fill="#319F43"/>
</g>
<defs>
<clipPath id="clip0_183_19">
<rect width="24" height="24" fill="white" transform="translate(0.956055 0.263672)"/>
</clipPath>
</defs>
</svg>
