<svg width="188" height="34" viewBox="0 0 188 34" fill="none" xmlns="http://www.w3.org/2000/svg">
<path d="M16.8389 31.2351V33.9353H8.17188C7.2688 33.3283 6.42288 32.6432 5.64258 31.8904L6.02344 31.2351H16.8389ZM31.8223 31.2351L32.2832 32.0339C31.5449 32.7305 30.7496 33.3671 29.9043 33.9353H20.999V31.2351H31.8223ZM20.502 0.182373C30.2845 0.640111 38.0757 8.71541 38.0762 18.6111C38.0762 22.3194 36.9806 25.7716 35.0977 28.6638L31.3057 22.1404C31.1245 21.8281 30.8611 21.5683 30.543 21.3875C30.2248 21.2067 29.8626 21.1111 29.4941 21.1111H8.34473C7.97617 21.1111 7.6142 21.2066 7.2959 21.3875C6.97766 21.5683 6.71439 21.828 6.5332 22.1404L2.85254 28.4705C1.04616 25.6184 0 22.2368 0 18.6111C0.000422832 8.80005 7.65856 0.778648 17.3232 0.196045C17.0119 0.558682 16.839 1.01751 16.8389 1.4939V3.56226C16.839 4.09915 17.0582 4.61424 17.4482 4.9939C17.8383 5.37352 18.3674 5.5866 18.9189 5.58667C19.4707 5.58667 20.0005 5.37364 20.3906 4.9939C20.7806 4.61426 20.9989 4.09909 20.999 3.56226V1.4939C20.9989 1.0112 20.8211 0.547212 20.502 0.182373ZM16.8389 25.1609V27.1853H8.38281L9.55859 25.1609H16.8389ZM28.2803 25.1609L29.4629 27.1853H20.999V25.1609H28.2803ZM4.35742 14.3611C3.80576 14.3611 3.2768 14.5751 2.88672 14.9548C2.49671 15.3346 2.27734 15.8495 2.27734 16.3865C2.27742 16.9234 2.49666 17.4384 2.88672 17.8181C3.27679 18.1978 3.80581 18.4108 4.35742 18.4109H5.74414C6.29585 18.4109 6.8257 18.1979 7.21582 17.8181C7.60575 17.4385 7.82415 16.9233 7.82422 16.3865C7.82422 15.8497 7.60565 15.3345 7.21582 14.9548C6.8257 14.5751 6.29585 14.3611 5.74414 14.3611H4.35742ZM18.9189 7.61206C16.5283 7.61213 14.2354 8.53594 12.5449 10.1814C10.8544 11.8269 9.90527 14.0593 9.90527 16.3865C9.90535 16.9233 10.1237 17.4385 10.5137 17.8181C10.9038 18.1979 11.4336 18.4109 11.9854 18.4109C12.537 18.4108 13.066 18.1978 13.4561 17.8181C13.8461 17.4384 14.0654 16.9234 14.0654 16.3865C14.0654 15.1334 14.577 13.9317 15.4873 13.0457C16.3975 12.1597 17.6317 11.6619 18.9189 11.6619C20.2063 11.6619 21.4413 12.1596 22.3516 13.0457C23.2617 13.9317 23.7734 15.1335 23.7734 16.3865C23.7735 16.9234 23.9928 17.4384 24.3828 17.8181C24.7729 18.1977 25.3019 18.4109 25.8535 18.4109C26.4051 18.4108 26.9342 18.1978 27.3242 17.8181C27.7143 17.4384 27.9335 16.9234 27.9336 16.3865C27.9336 14.0593 26.9835 11.8269 25.293 10.1814C23.6025 8.53604 21.3096 7.61206 18.9189 7.61206ZM32.0938 14.3611C31.5421 14.3612 31.0131 14.5752 30.623 14.9548C30.2331 15.3346 30.0137 15.8495 30.0137 16.3865C30.0137 16.9234 30.233 17.4384 30.623 17.8181C31.0131 18.1978 31.5422 18.4108 32.0938 18.4109H33.4805C34.0322 18.4109 34.562 18.1979 34.9521 17.8181C35.3421 17.4384 35.5615 16.9234 35.5615 16.3865C35.5615 15.8496 35.342 15.3345 34.9521 14.9548C34.562 14.5751 34.0322 14.3611 33.4805 14.3611H32.0938ZM8.62402 4.33276C8.35037 4.33276 8.079 4.38512 7.82617 4.48706C7.5735 4.58895 7.34382 4.73831 7.15039 4.92651C6.75964 5.30686 6.5401 5.82319 6.54004 6.36108C6.54004 6.89905 6.75959 7.41525 7.15039 7.79565L8.13184 8.74878C8.3253 8.93708 8.55486 9.08631 8.80762 9.18823C9.0603 9.29011 9.331 9.34345 9.60449 9.34351C9.87815 9.34351 10.1495 9.29017 10.4023 9.18823C10.6551 9.08631 10.8847 8.93708 11.0781 8.74878C11.2716 8.56042 11.4256 8.33667 11.5303 8.09058C11.6349 7.84457 11.6885 7.58047 11.6885 7.31421C11.6884 7.04812 11.6348 6.78467 11.5303 6.53882C11.4256 6.29272 11.2716 6.06897 11.0781 5.88062L10.0977 4.92651C9.90416 4.73818 9.6737 4.58899 9.4209 4.48706C9.16825 4.38525 8.89746 4.33279 8.62402 4.33276ZM29.2178 4.33276C28.6652 4.33285 28.1349 4.54619 27.7441 4.92651L26.7637 5.88062C26.4724 6.16381 26.2738 6.52472 26.1934 6.91772C26.113 7.3105 26.1541 7.71764 26.3115 8.08765C26.4691 8.45784 26.7367 8.77435 27.0791 8.99683C27.4215 9.21922 27.8238 9.33796 28.2354 9.33765L28.2402 9.34253C28.5136 9.34252 28.7846 9.29015 29.0371 9.18823C29.2896 9.08632 29.5188 8.937 29.7119 8.74878L30.6914 7.79565C30.8849 7.6073 31.0388 7.38355 31.1436 7.13745C31.2482 6.8914 31.3018 6.6274 31.3018 6.36108C31.3017 6.09478 31.2483 5.83075 31.1436 5.58472C31.0388 5.3387 30.8849 5.11482 30.6914 4.92651C30.498 4.73832 30.2683 4.58894 30.0156 4.48706C29.7628 4.38513 29.4914 4.33276 29.2178 4.33276Z" fill="white"/>
<path d="M53.7634 29.3447C51.428 29.3447 49.4379 28.9117 47.7931 28.0457C46.1482 27.1601 44.8891 25.9301 44.0159 24.3556C43.163 22.7615 42.7366 20.9115 42.7366 18.8056C42.7366 16.6801 43.163 14.8006 44.0159 13.1671C44.8891 11.5336 46.1279 10.2642 47.7321 9.35892C49.3364 8.43393 51.2453 7.97143 53.4588 7.97143C55.9972 7.97143 58.0888 8.56185 59.7337 9.74269C61.3989 10.9039 62.4752 12.5177 62.9625 14.5841H58.2106C57.8857 13.6985 57.3273 13.0097 56.5353 12.5177C55.7433 12.0257 54.7178 11.7796 53.4588 11.7796C52.0982 11.7796 50.9407 12.065 49.9862 12.6358C49.0318 13.2065 48.3007 14.0232 47.7931 15.086C47.3057 16.1291 47.062 17.3788 47.062 18.8352C47.062 20.2719 47.3158 21.5019 47.8235 22.5253C48.3515 23.5487 49.113 24.3359 50.1081 24.887C51.1031 25.4184 52.3317 25.6841 53.7938 25.6841C55.4793 25.6841 56.8095 25.2412 57.7842 24.3556C58.7589 23.4503 59.2463 22.2006 59.2463 20.6064H53.4588V17.5362H63.5717V19.337C63.5717 21.5413 63.1453 23.3913 62.2924 24.887C61.4395 26.363 60.2718 27.475 58.7894 28.2229C57.3273 28.9707 55.6519 29.3447 53.7634 29.3447Z" fill="white"/>
<path d="M64.7109 28.9904V14.348H68.9754V16.5621C69.3816 15.8339 69.8893 15.2631 70.4985 14.8498C71.1077 14.4169 71.7981 14.2004 72.5698 14.2004H74.4279V17.861H72.1434C71.392 17.861 70.7828 18.0479 70.3157 18.4219C69.8486 18.7958 69.5034 19.3567 69.28 20.1046C69.077 20.8328 68.9754 21.7282 68.9754 22.791V28.9904H64.7109Z" fill="white"/>
<path d="M81.6792 29.3447C80.1156 29.3447 78.7347 29.0298 77.5366 28.4C76.3385 27.7505 75.4043 26.8649 74.7342 25.7431C74.0641 24.6016 73.729 23.2928 73.729 21.8168C73.729 20.3014 74.0539 18.9533 74.7037 17.7724C75.3739 16.5916 76.308 15.6666 77.5061 14.9974C78.7042 14.3283 80.0953 13.9937 81.6792 13.9937C83.182 13.9937 84.5121 14.3086 85.6696 14.9384C86.8271 15.5682 87.7308 16.4341 88.3806 17.5362C89.0304 18.6187 89.3554 19.8586 89.3554 21.2559C89.3554 21.4527 89.3554 21.679 89.3554 21.9349C89.3554 22.171 89.3351 22.4171 89.2944 22.6729H76.7751V20.1931H85.0299C84.969 19.3272 84.6238 18.6384 83.9943 18.1267C83.3851 17.5953 82.6235 17.3296 81.7097 17.3296C81.0193 17.3296 80.3796 17.4772 79.7907 17.7724C79.2221 18.0676 78.7652 18.5203 78.4199 19.1304C78.095 19.7208 77.9326 20.4785 77.9326 21.4035V22.2596C77.9326 23.0075 78.0849 23.6668 78.3895 24.2375C78.7144 24.7886 79.151 25.2216 79.6993 25.5364C80.2679 25.8317 80.9177 25.9793 81.6488 25.9793C82.3595 25.9793 82.9586 25.8317 83.446 25.5364C83.9333 25.2216 84.309 24.8181 84.573 24.3261H88.9289C88.6446 25.2708 88.1572 26.1269 87.4668 26.8944C86.7967 27.6423 85.9641 28.2425 84.969 28.6952C83.9943 29.1282 82.8977 29.3447 81.6792 29.3447Z" fill="white"/>
<path d="M98.0257 29.3447C96.4621 29.3447 95.0812 29.0298 93.8831 28.4C92.685 27.7505 91.7508 26.8649 91.0807 25.7431C90.4105 24.6016 90.0755 23.2928 90.0755 21.8168C90.0755 20.3014 90.4004 18.9533 91.0502 17.7724C91.7204 16.5916 92.6545 15.6666 93.8526 14.9974C95.0507 14.3283 96.4418 13.9937 98.0257 13.9937C99.5285 13.9937 100.859 14.3086 102.016 14.9384C103.174 15.5682 104.077 16.4341 104.727 17.5362C105.377 18.6187 105.702 19.8586 105.702 21.2559C105.702 21.4527 105.702 21.679 105.702 21.9349C105.702 22.171 105.682 22.4171 105.641 22.6729H93.1216V20.1931H101.376C101.316 19.3272 100.97 18.6384 100.341 18.1267C99.7315 17.5953 98.97 17.3296 98.0562 17.3296C97.3658 17.3296 96.7261 17.4772 96.1372 17.7724C95.5686 18.0676 95.1117 18.5203 94.7664 19.1304C94.4415 19.7208 94.2791 20.4785 94.2791 21.4035V22.2596C94.2791 23.0075 94.4314 23.6668 94.736 24.2375C95.0609 24.7886 95.4975 25.2216 96.0458 25.5364C96.6144 25.8317 97.2642 25.9793 97.9953 25.9793C98.706 25.9793 99.3051 25.8317 99.7925 25.5364C100.28 25.2216 100.656 24.8181 100.92 24.3261H105.275C104.991 25.2708 104.504 26.1269 103.813 26.8944C103.143 27.6423 102.311 28.2425 101.316 28.6952C100.341 29.1282 99.2442 29.3447 98.0257 29.3447Z" fill="white"/>
<path d="M106.879 28.9904V14.348H111.143V16.503C111.631 15.7355 112.291 15.1254 113.123 14.6727C113.976 14.22 114.971 13.9937 116.108 13.9937C118.017 13.9937 119.479 14.5841 120.495 15.765C121.51 16.9261 122.018 18.6088 122.018 20.8131V28.9904H117.753V21.1969C117.753 19.9963 117.5 19.0812 116.992 18.4514C116.504 17.8019 115.723 17.4772 114.646 17.4772C113.631 17.4772 112.788 17.8315 112.118 18.54C111.468 19.2288 111.143 20.1931 111.143 21.433V28.9904H106.879Z" fill="white"/>
<path d="M129.339 28.9904V11.6616H123.125V8.32568H139.787V11.6616H133.603V28.9904H129.339Z" fill="white"/>
<path d="M144.834 29.3447C143.271 29.3447 141.89 29.0298 140.692 28.4C139.493 27.7505 138.559 26.8649 137.889 25.7431C137.219 24.6016 136.884 23.2928 136.884 21.8168C136.884 20.3014 137.209 18.9533 137.859 17.7724C138.529 16.5916 139.463 15.6666 140.661 14.9974C141.859 14.3283 143.25 13.9937 144.834 13.9937C146.337 13.9937 147.667 14.3086 148.825 14.9384C149.982 15.5682 150.886 16.4341 151.536 17.5362C152.185 18.6187 152.51 19.8586 152.51 21.2559C152.51 21.4527 152.51 21.679 152.51 21.9349C152.51 22.171 152.49 22.4171 152.449 22.6729H139.93V20.1931H148.185C148.124 19.3272 147.779 18.6384 147.149 18.1267C146.54 17.5953 145.778 17.3296 144.865 17.3296C144.174 17.3296 143.535 17.4772 142.946 17.7724C142.377 18.0676 141.92 18.5203 141.575 19.1304C141.25 19.7208 141.088 20.4785 141.088 21.4035V22.2596C141.088 23.0075 141.24 23.6668 141.544 24.2375C141.869 24.7886 142.306 25.2216 142.854 25.5364C143.423 25.8317 144.073 25.9793 144.804 25.9793C145.514 25.9793 146.114 25.8317 146.601 25.5364C147.088 25.2216 147.464 24.8181 147.728 24.3261H152.084C151.8 25.2708 151.312 26.1269 150.622 26.8944C149.952 27.6423 149.119 28.2425 148.124 28.6952C147.149 29.1282 146.053 29.3447 144.834 29.3447Z" fill="white"/>
<path d="M161.15 29.3447C159.587 29.3447 158.206 29.0199 157.008 28.3705C155.809 27.7013 154.865 26.796 154.175 25.6545C153.505 24.4934 153.169 23.1649 153.169 21.6692C153.169 20.1735 153.505 18.8549 154.175 17.7134C154.865 16.5522 155.809 15.6469 157.008 14.9974C158.206 14.3283 159.587 13.9937 161.15 13.9937C163.1 13.9937 164.745 14.4956 166.085 15.4993C167.425 16.4833 168.288 17.8511 168.674 19.6027H164.166C163.983 18.9729 163.618 18.4711 163.069 18.0971C162.521 17.7232 161.871 17.5362 161.12 17.5362C160.45 17.5362 159.84 17.7035 159.292 18.0381C158.744 18.3727 158.307 18.845 157.982 19.4551C157.678 20.0652 157.525 20.8032 157.525 21.6692C157.525 22.5155 157.678 23.2535 157.982 23.8833C158.307 24.513 158.744 24.9952 159.292 25.3298C159.84 25.6644 160.45 25.8317 161.12 25.8317C161.871 25.8317 162.521 25.6545 163.069 25.3003C163.618 24.9263 163.983 24.4048 164.166 23.7357H168.674C168.308 25.4282 167.445 26.7862 166.085 27.8096C164.745 28.833 163.1 29.3447 161.15 29.3447Z" fill="white"/>
<path d="M169.766 28.9904V7.73526H174.031V16.503C174.518 15.7355 175.188 15.1254 176.041 14.6727C176.914 14.22 177.909 13.9937 179.026 13.9937C180.915 13.9937 182.367 14.5841 183.382 15.765C184.397 16.9261 184.905 18.6088 184.905 20.8131V28.9904H180.671V21.1969C180.671 19.9963 180.427 19.0812 179.94 18.4514C179.453 17.8019 178.671 17.4772 177.595 17.4772C176.559 17.4772 175.706 17.8315 175.036 18.54C174.366 19.2288 174.031 20.1931 174.031 21.433V28.9904H169.766Z" fill="white"/>
<path d="M184.312 10.5398C183.599 10.5398 182.963 10.3908 182.405 10.0929C181.847 9.78355 181.407 9.35961 181.086 8.8211C180.777 8.27113 180.623 7.65241 180.623 6.96495C180.623 6.26603 180.777 5.65304 181.086 5.12598C181.407 4.58747 181.847 4.16353 182.405 3.85417C182.963 3.54482 183.599 3.39014 184.312 3.39014C185.036 3.39014 185.672 3.54482 186.218 3.85417C186.777 4.16353 187.21 4.58747 187.519 5.12598C187.84 5.65304 188 6.26603 188 6.96495C188 7.65241 187.84 8.27113 187.519 8.8211C187.21 9.35961 186.777 9.78355 186.218 10.0929C185.672 10.3908 185.036 10.5398 184.312 10.5398ZM184.312 9.78355C185.179 9.78355 185.868 9.52002 186.379 8.99297C186.901 8.46591 187.163 7.78991 187.163 6.96495C187.163 6.13999 186.901 5.46971 186.379 4.95412C185.868 4.42706 185.179 4.16353 184.312 4.16353C183.444 4.16353 182.749 4.42706 182.227 4.95412C181.716 5.46971 181.46 6.13999 181.46 6.96495C181.46 7.78991 181.716 8.46591 182.227 8.99297C182.749 9.52002 183.444 9.78355 184.312 9.78355ZM182.815 8.76954V5.09161H184.632C185.036 5.09161 185.357 5.20046 185.595 5.41815C185.832 5.62439 185.951 5.89938 185.951 6.24311C185.951 6.62122 185.814 6.91912 185.541 7.13681C185.684 7.22848 185.779 7.34305 185.826 7.48055C185.886 7.61804 185.921 7.77272 185.933 7.94458L186.004 8.76954H185.06L184.989 8.15082C184.953 7.84147 184.906 7.64095 184.846 7.54929C184.787 7.44617 184.632 7.39461 184.383 7.39461H183.848V8.76954H182.815ZM183.83 6.67278H184.508C184.626 6.67278 184.727 6.64413 184.811 6.58684C184.894 6.52955 184.935 6.43216 184.935 6.29467C184.935 6.16864 184.894 6.0827 184.811 6.03687C184.727 5.97958 184.626 5.95094 184.508 5.95094H183.83V6.67278Z" fill="white"/>
</svg>
