<svg width="196" height="37" viewBox="0 0 196 37" fill="none" xmlns="http://www.w3.org/2000/svg">
<path d="M17.5557 33.4287V36.333H4.64551L6.2793 33.4287H17.5557ZM33.1758 33.4287L34.8027 36.333H21.8926V33.4287H33.1758ZM31.7568 0C36.1416 0 39.6963 3.55468 39.6963 7.93945V31.7578C39.6963 32.9014 39.4519 33.9874 39.0166 34.9697L32.6377 23.6445C32.4488 23.3085 32.1736 23.0285 31.8418 22.834C31.5101 22.6396 31.1331 22.5371 30.749 22.5371H8.7002C8.31599 22.5371 7.93826 22.6395 7.60645 22.834C7.2746 23.0285 7.00044 23.3085 6.81152 23.6445L0.572266 34.7188C0.204103 33.8036 8.09024e-06 32.8047 0 31.7578V7.93945C0 3.55468 3.55468 0 7.93945 0H18.0947C17.7494 0.395871 17.5558 0.904032 17.5557 1.43359V3.6582C17.5557 4.23579 17.7839 4.78976 18.1904 5.19824C18.5972 5.60675 19.1494 5.83691 19.7246 5.83691C20.2997 5.83682 20.8512 5.60667 21.2578 5.19824C21.6644 4.78975 21.8926 4.23585 21.8926 3.6582V1.43359C21.8925 0.903976 21.6989 0.395888 21.3535 0H31.7568ZM17.5557 26.8936V29.0723H8.73926L9.96484 26.8936H17.5557ZM29.4834 26.8936L30.7158 29.0723H21.8926V26.8936H29.4834ZM4.54297 15.2764C3.96782 15.2764 3.41648 15.5056 3.00977 15.9141C2.60307 16.3225 2.37405 16.8764 2.37402 17.4541C2.37402 18.0318 2.60306 18.5856 3.00977 18.9941C3.41648 19.4027 3.96778 19.6328 4.54297 19.6328H5.98926C6.56429 19.6327 7.11585 19.4025 7.52246 18.9941C7.92903 18.5857 8.15723 18.0317 8.15723 17.4541C8.1572 16.8765 7.92907 16.3225 7.52246 15.9141C7.11585 15.5057 6.56429 15.2765 5.98926 15.2764H4.54297ZM19.7246 8.01465C17.2322 8.01465 14.8415 9.00923 13.0791 10.7793C11.3167 12.5495 10.3262 14.9507 10.3262 17.4541C10.3262 18.0318 10.5552 18.5856 10.9619 18.9941C11.3686 19.4026 11.9199 19.6328 12.4951 19.6328C13.0703 19.6328 13.6216 19.4026 14.0283 18.9941C14.435 18.5856 14.6641 18.0318 14.6641 17.4541C14.6641 16.1063 15.1967 14.8135 16.1455 13.8604C17.0945 12.9072 18.3825 12.3711 19.7246 12.3711C21.0666 12.3712 22.3538 12.9072 23.3027 13.8604C24.2516 14.8135 24.7851 16.1062 24.7852 17.4541C24.7852 18.0317 25.0133 18.5856 25.4199 18.9941C25.8266 19.4026 26.378 19.6327 26.9531 19.6328C27.5283 19.6328 28.0806 19.4027 28.4873 18.9941C28.8938 18.5857 29.1221 18.0317 29.1221 17.4541C29.122 14.9507 28.1316 12.5495 26.3691 10.7793C24.6068 9.0094 22.2168 8.01474 19.7246 8.01465ZM33.46 15.2764C32.8848 15.2764 32.3325 15.5056 31.9258 15.9141C31.5192 16.3225 31.291 16.8765 31.291 17.4541C31.291 18.0317 31.5193 18.5857 31.9258 18.9941C32.3325 19.4027 32.8848 19.6328 33.46 19.6328H34.9053C35.4805 19.6328 36.0327 19.4027 36.4395 18.9941C36.8459 18.5857 37.0742 18.0316 37.0742 17.4541C37.0742 16.8765 36.846 16.3225 36.4395 15.9141C36.0327 15.5056 35.4805 15.2764 34.9053 15.2764H33.46ZM8.99121 4.4873C8.70592 4.4873 8.42275 4.54367 8.15918 4.65332C7.8956 4.76298 7.65584 4.92433 7.4541 5.12695C7.04686 5.53615 6.81836 6.09133 6.81836 6.66992C6.8184 7.24853 7.0468 7.80372 7.4541 8.21289L8.47754 9.23828C8.67927 9.4409 8.91904 9.60128 9.18262 9.71094C9.44616 9.82056 9.72842 9.87793 10.0137 9.87793C10.2989 9.87793 10.5812 9.82056 10.8447 9.71094C11.1083 9.60128 11.3481 9.44091 11.5498 9.23828C11.7515 9.03566 11.9113 8.79501 12.0205 8.53027C12.1297 8.26554 12.1865 7.98185 12.1865 7.69531C12.1865 7.40878 12.1297 7.12507 12.0205 6.86035C11.9113 6.59564 11.7515 6.35495 11.5498 6.15234L10.5273 5.12695C10.3256 4.92433 10.0858 4.76298 9.82227 4.65332C9.55884 4.54373 9.27633 4.48737 8.99121 4.4873ZM30.4609 4.4873C29.8849 4.48742 29.3321 4.71784 28.9248 5.12695L27.9023 6.15234C27.5987 6.45699 27.3914 6.84578 27.3076 7.26855C27.2239 7.69119 27.2674 8.12925 27.4316 8.52734C27.5959 8.9254 27.8737 9.26557 28.2305 9.50488C28.5874 9.74419 29.0074 9.87238 29.4365 9.87207L29.4424 9.87695C29.7273 9.8769 30.0093 9.82054 30.2725 9.71094C30.5357 9.6013 30.7752 9.44083 30.9766 9.23828L31.998 8.21289C32.1997 8.0103 32.3596 7.76956 32.4688 7.50488C32.5779 7.24019 32.6338 6.95642 32.6338 6.66992C32.6338 6.38347 32.5779 6.09962 32.4688 5.83496C32.3596 5.57035 32.1996 5.32951 31.998 5.12695C31.7963 4.92433 31.5565 4.76298 31.293 4.65332C31.0294 4.54366 30.7462 4.4873 30.4609 4.4873Z" fill="#00DF82"/>
<path d="M56.0511 31.3945C53.6164 31.3945 51.5416 30.9287 49.8267 29.9971C48.1118 29.0444 46.7992 27.7211 45.8888 26.0274C44.9996 24.3125 44.555 22.3223 44.555 20.057C44.555 17.7704 44.9996 15.7485 45.8888 13.9913C46.7992 12.234 48.0907 10.8684 49.7632 9.89451C51.4357 8.89944 53.4258 8.4019 55.7335 8.4019C58.3799 8.4019 60.5606 9.03706 62.2754 10.3074C64.0115 11.5565 65.1336 13.2926 65.6417 15.5156H60.6876C60.3488 14.5629 59.7666 13.8219 58.941 13.2926C58.1153 12.7633 57.0461 12.4986 55.7335 12.4986C54.315 12.4986 53.1083 12.8056 52.1132 13.4196C51.1182 14.0336 50.356 14.9122 49.8267 16.0555C49.3186 17.1776 49.0645 18.522 49.0645 20.0887C49.0645 21.6343 49.3292 22.9575 49.8585 24.0584C50.4089 25.1594 51.2028 26.0062 52.2402 26.599C53.2776 27.1707 54.5585 27.4565 56.0828 27.4565C57.84 27.4565 59.2268 26.9801 60.243 26.0274C61.2592 25.0535 61.7673 23.7091 61.7673 21.9942H55.7335V18.6914H66.2768V20.6286C66.2768 22.9998 65.8322 24.99 64.943 26.599C64.0538 28.1869 62.8365 29.3831 61.291 30.1877C59.7666 30.9922 58.02 31.3945 56.0511 31.3945Z" fill="#07603D"/>
<path d="M67.4645 31.0134V15.2616H71.9104V17.6434C72.3339 16.86 72.8632 16.246 73.4983 15.8014C74.1334 15.3357 74.8533 15.1028 75.6578 15.1028H77.5949V19.0407H75.2132C74.4298 19.0407 73.7947 19.2418 73.3078 19.6441C72.8208 20.0464 72.4609 20.6498 72.228 21.4543C72.0163 22.2377 71.9104 23.201 71.9104 24.3442V31.0134H67.4645Z" fill="#07603D"/>
<path d="M85.1548 31.3945C83.5246 31.3945 82.085 31.0557 80.8359 30.3782C79.5868 29.6795 78.6129 28.7268 77.9142 27.52C77.2156 26.2921 76.8663 24.8841 76.8663 23.2962C76.8663 21.666 77.205 20.2158 77.8825 18.9454C78.5811 17.6751 79.555 16.6801 80.8041 15.9602C82.0532 15.2404 83.5035 14.8805 85.1548 14.8805C86.7215 14.8805 88.1082 15.2192 89.315 15.8967C90.5218 16.5742 91.4639 17.5058 92.1414 18.6914C92.8188 19.8558 93.1576 21.1897 93.1576 22.6929C93.1576 22.9046 93.1576 23.148 93.1576 23.4233C93.1576 23.6773 93.1364 23.942 93.0941 24.2172H80.042V21.5496H88.6481C88.5846 20.618 88.2247 19.877 87.5684 19.3265C86.9332 18.7549 86.1393 18.4691 85.1866 18.4691C84.4668 18.4691 83.7999 18.6279 83.1859 18.9454C82.5931 19.263 82.1168 19.75 81.7568 20.4063C81.4181 21.0415 81.2487 21.8566 81.2487 22.8516V23.7726C81.2487 24.5771 81.4075 25.2864 81.7251 25.9004C82.0638 26.4932 82.519 26.959 83.0906 27.2977C83.6834 27.6153 84.3609 27.7741 85.1231 27.7741C85.8641 27.7741 86.4886 27.6153 86.9967 27.2977C87.5049 26.959 87.8965 26.5249 88.1717 25.9956H92.713C92.4166 27.0119 91.9085 27.9329 91.1887 28.7586C90.49 29.5631 89.622 30.2088 88.5846 30.6958C87.5684 31.1616 86.4251 31.3945 85.1548 31.3945Z" fill="#07603D"/>
<path d="M102.197 31.3945C100.567 31.3945 99.1271 31.0557 97.878 30.3782C96.6289 29.6795 95.655 28.7268 94.9563 27.52C94.2577 26.2921 93.9083 24.8841 93.9083 23.2962C93.9083 21.666 94.2471 20.2158 94.9246 18.9454C95.6232 17.6751 96.5971 16.6801 97.8462 15.9602C99.0953 15.2404 100.546 14.8805 102.197 14.8805C103.764 14.8805 105.15 15.2192 106.357 15.8967C107.564 16.5742 108.506 17.5058 109.183 18.6914C109.861 19.8558 110.2 21.1897 110.2 22.6929C110.2 22.9046 110.2 23.148 110.2 23.4233C110.2 23.6773 110.178 23.942 110.136 24.2172H97.084V21.5496H105.69C105.627 20.618 105.267 19.877 104.61 19.3265C103.975 18.7549 103.181 18.4691 102.229 18.4691C101.509 18.4691 100.842 18.6279 100.228 18.9454C99.6352 19.263 99.1588 19.75 98.7989 20.4063C98.4602 21.0415 98.2908 21.8566 98.2908 22.8516V23.7726C98.2908 24.5771 98.4496 25.2864 98.7672 25.9004C99.1059 26.4932 99.5611 26.959 100.133 27.2977C100.726 27.6153 101.403 27.7741 102.165 27.7741C102.906 27.7741 103.531 27.6153 104.039 27.2977C104.547 26.959 104.939 26.5249 105.214 25.9956H109.755C109.459 27.0119 108.951 27.9329 108.231 28.7586C107.532 29.5631 106.664 30.2088 105.627 30.6958C104.61 31.1616 103.467 31.3945 102.197 31.3945Z" fill="#07603D"/>
<path d="M111.427 31.0134V15.2616H115.873V17.5799C116.381 16.7542 117.069 16.0978 117.937 15.6109C118.826 15.1239 119.864 14.8805 121.049 14.8805C123.039 14.8805 124.564 15.5156 125.622 16.7859C126.681 18.0351 127.21 19.8452 127.21 22.2165V31.0134H122.764V22.6293C122.764 21.3379 122.499 20.3534 121.97 19.6759C121.462 18.9772 120.647 18.6279 119.525 18.6279C118.466 18.6279 117.588 19.009 116.889 19.7711C116.211 20.5122 115.873 21.5496 115.873 22.8834V31.0134H111.427Z" fill="#07603D"/>
<path d="M134.842 31.0134V12.3716H128.364V8.78299H145.735V12.3716H139.288V31.0134H134.842Z" fill="#07603D"/>
<path d="M150.997 31.3945C149.367 31.3945 147.927 31.0557 146.678 30.3782C145.429 29.6795 144.455 28.7268 143.757 27.52C143.058 26.2921 142.709 24.8841 142.709 23.2962C142.709 21.666 143.047 20.2158 143.725 18.9454C144.424 17.6751 145.397 16.6801 146.646 15.9602C147.896 15.2404 149.346 14.8805 150.997 14.8805C152.564 14.8805 153.951 15.2192 155.157 15.8967C156.364 16.5742 157.306 17.5058 157.984 18.6914C158.661 19.8558 159 21.1897 159 22.6929C159 22.9046 159 23.148 159 23.4233C159 23.6773 158.979 23.942 158.936 24.2172H145.884V21.5496H154.49C154.427 20.618 154.067 19.877 153.411 19.3265C152.776 18.7549 151.982 18.4691 151.029 18.4691C150.309 18.4691 149.642 18.6279 149.028 18.9454C148.435 19.263 147.959 19.75 147.599 20.4063C147.26 21.0415 147.091 21.8566 147.091 22.8516V23.7726C147.091 24.5771 147.25 25.2864 147.567 25.9004C147.906 26.4932 148.361 26.959 148.933 27.2977C149.526 27.6153 150.203 27.7741 150.965 27.7741C151.706 27.7741 152.331 27.6153 152.839 27.2977C153.347 26.959 153.739 26.5249 154.014 25.9956H158.555C158.259 27.0119 157.751 27.9329 157.031 28.7586C156.332 29.5631 155.464 30.2088 154.427 30.6958C153.411 31.1616 152.267 31.3945 150.997 31.3945Z" fill="#07603D"/>
<path d="M168.008 31.3945C166.377 31.3945 164.938 31.0451 163.689 30.3464C162.439 29.6266 161.455 28.6527 160.735 27.4247C160.037 26.1756 159.687 24.7465 159.687 23.1375C159.687 21.5284 160.037 20.1099 160.735 18.8819C161.455 17.6328 162.439 16.6589 163.689 15.9602C164.938 15.2404 166.377 14.8805 168.008 14.8805C170.04 14.8805 171.755 15.4203 173.152 16.5001C174.549 17.5587 175.449 19.0301 175.851 20.9144H171.151C170.961 20.2369 170.58 19.697 170.008 19.2948C169.437 18.8925 168.759 18.6914 167.976 18.6914C167.277 18.6914 166.642 18.8713 166.07 19.2313C165.499 19.5912 165.044 20.0993 164.705 20.7556C164.387 21.412 164.228 22.2059 164.228 23.1375C164.228 24.0478 164.387 24.8418 164.705 25.5193C165.044 26.1968 165.499 26.7155 166.07 27.0754C166.642 27.4353 167.277 27.6153 167.976 27.6153C168.759 27.6153 169.437 27.4247 170.008 27.0436C170.58 26.6414 170.961 26.0803 171.151 25.3605H175.851C175.47 27.1813 174.571 28.6421 173.152 29.7431C171.755 30.844 170.04 31.3945 168.008 31.3945Z" fill="#07603D"/>
<path d="M176.99 31.0134V8.14784H181.436V17.5799C181.944 16.7542 182.643 16.0978 183.532 15.6109C184.442 15.1239 185.48 14.8805 186.644 14.8805C188.613 14.8805 190.127 15.5156 191.185 16.7859C192.244 18.0351 192.773 19.8452 192.773 22.2165V31.0134H188.359V22.6293C188.359 21.3379 188.105 20.3534 187.597 19.6759C187.089 18.9772 186.274 18.6279 185.152 18.6279C184.072 18.6279 183.183 19.009 182.484 19.7711C181.785 20.5122 181.436 21.5496 181.436 22.8834V31.0134H176.99Z" fill="#07603D"/>
<path d="M192.154 11.1648C191.411 11.1648 190.749 11.0046 190.167 10.6841C189.585 10.3513 189.126 9.89526 188.792 9.31595C188.47 8.72431 188.309 8.05871 188.309 7.31916C188.309 6.56729 188.47 5.90786 188.792 5.34087C189.126 4.76156 189.585 4.3055 190.167 3.97271C190.749 3.63991 191.411 3.47351 192.154 3.47351C192.91 3.47351 193.573 3.63991 194.142 3.97271C194.724 4.3055 195.176 4.76156 195.498 5.34087C195.833 5.90786 196 6.56729 196 7.31916C196 8.05871 195.833 8.72431 195.498 9.31595C195.176 9.89526 194.724 10.3513 194.142 10.6841C193.573 11.0046 192.91 11.1648 192.154 11.1648ZM192.154 10.3513C193.059 10.3513 193.777 10.0678 194.309 9.50083C194.854 8.93385 195.127 8.20662 195.127 7.31916C195.127 6.43171 194.854 5.71065 194.309 5.15598C193.777 4.589 193.059 4.3055 192.154 4.3055C191.25 4.3055 190.526 4.589 189.981 5.15598C189.448 5.71065 189.182 6.43171 189.182 7.31916C189.182 8.20662 189.448 8.93385 189.981 9.50083C190.526 10.0678 191.25 10.3513 192.154 10.3513ZM190.594 9.26048V5.30389H192.489C192.91 5.30389 193.244 5.42099 193.492 5.65518C193.74 5.87704 193.864 6.17286 193.864 6.54264C193.864 6.94939 193.721 7.26986 193.436 7.50405C193.585 7.60266 193.684 7.72592 193.734 7.87383C193.795 8.02174 193.833 8.18813 193.845 8.37302L193.919 9.26048H192.935L192.86 8.59489C192.823 8.26209 192.774 8.04639 192.712 7.94778C192.65 7.83685 192.489 7.78138 192.229 7.78138H191.671V9.26048H190.594ZM191.653 7.00486H192.359C192.483 7.00486 192.588 6.97404 192.675 6.91241C192.761 6.85078 192.805 6.74601 192.805 6.5981C192.805 6.46252 192.761 6.37008 192.675 6.32077C192.588 6.25914 192.483 6.22833 192.359 6.22833H191.653V7.00486Z" fill="#07603D"/>
</svg>
