<svg width="182" height="34" viewBox="0 0 182 34" fill="none" xmlns="http://www.w3.org/2000/svg">
<path d="M16.3018 31.0479V33.7451H4.31445L5.83105 31.0479H16.3018ZM30.8066 31.0479L32.3164 33.7451H20.3291V31.0479H30.8066ZM31.4326 0C34.4303 0 36.8603 2.43006 36.8604 5.42773V31.4424C36.8603 32.0296 36.7653 32.5944 36.5928 33.124L30.3057 21.9609C30.1302 21.6488 29.8755 21.3887 29.5674 21.208C29.2594 21.0274 28.9093 20.9317 28.5527 20.9316H8.07812C7.72152 20.9317 7.37148 21.0275 7.06348 21.208C6.75534 21.3887 6.49964 21.6488 6.32422 21.9609L0.1875 32.8574C0.065952 32.4062 2.21262e-06 31.932 0 31.4424V5.42773C9.83842e-05 2.43012 2.43012 9.6317e-05 5.42773 0H16.8027C16.4819 0.367801 16.3018 0.839957 16.3018 1.33203V3.39746C16.3018 3.93404 16.5139 4.4487 16.8916 4.82812C17.2693 5.20753 17.7813 5.4209 18.3154 5.4209C18.8495 5.42089 19.3616 5.20754 19.7393 4.82812C20.1169 4.44871 20.3291 3.93403 20.3291 3.39746V1.33203C20.3291 0.83998 20.149 0.367794 19.8281 0H31.4326ZM16.3018 24.9785V27.002H8.11523L9.25293 24.9785H16.3018ZM27.3779 24.9785L28.5225 27.002H20.3291V24.9785H27.3779ZM4.21875 14.1885C3.68483 14.1885 3.17255 14.4011 2.79492 14.7803C2.41732 15.1596 2.20516 15.6745 2.20508 16.2109C2.20508 16.7475 2.41725 17.2622 2.79492 17.6416C3.17258 18.021 3.68469 18.2344 4.21875 18.2344H5.56152C6.09546 18.2342 6.6078 18.0209 6.98535 17.6416C7.36285 17.2622 7.5752 16.7474 7.5752 16.2109C7.57512 15.6745 7.36295 15.1596 6.98535 14.7803C6.6078 14.401 6.09544 14.1886 5.56152 14.1885H4.21875ZM18.3154 7.44434C16.001 7.44434 13.7811 8.36756 12.1445 10.0117C10.508 11.6558 9.58895 13.8858 9.58887 16.2109C9.58887 16.7475 9.80108 17.2622 10.1787 17.6416C10.5564 18.021 11.0684 18.2344 11.6025 18.2344C12.1366 18.2344 12.6487 18.021 13.0264 17.6416C13.404 17.2622 13.6162 16.7475 13.6162 16.2109C13.6163 14.959 14.112 13.7583 14.9932 12.873C15.8744 11.9879 17.0693 11.4902 18.3154 11.4902C19.5615 11.4902 20.7565 11.9879 21.6377 12.873C22.5189 13.7583 23.0146 14.959 23.0146 16.2109C23.0146 16.7475 23.2268 17.2622 23.6045 17.6416C23.9822 18.021 24.4942 18.2344 25.0283 18.2344C25.5624 18.2343 26.0745 18.021 26.4521 17.6416C26.8298 17.2622 27.042 16.7475 27.042 16.2109C27.0419 13.8859 26.1228 11.6558 24.4863 10.0117C22.8498 8.36757 20.6299 7.44435 18.3154 7.44434ZM31.0693 14.1885C30.5354 14.1886 30.0231 14.401 29.6455 14.7803C29.2679 15.1596 29.0557 15.6745 29.0557 16.2109C29.0557 16.7474 29.268 17.2622 29.6455 17.6416C30.0231 18.0209 30.5354 18.2343 31.0693 18.2344H32.4121C32.9462 18.2344 33.4583 18.021 33.8359 17.6416C34.2136 17.2622 34.4258 16.7475 34.4258 16.2109C34.4257 15.6745 34.2135 15.1596 33.8359 14.7803C33.4583 14.4011 32.9461 14.1885 32.4121 14.1885H31.0693ZM8.34863 4.16797C8.08371 4.16797 7.82093 4.22041 7.57617 4.32227C7.33153 4.42411 7.10913 4.5736 6.92188 4.76172C6.54373 5.14169 6.33116 5.65703 6.33105 6.19434C6.33105 6.73183 6.54358 7.24785 6.92188 7.62793L7.87207 8.58008C8.05937 8.76825 8.28166 8.91768 8.52637 9.01953C8.77112 9.12138 9.03391 9.17383 9.29883 9.17383C9.5636 9.17377 9.82569 9.12133 10.0703 9.01953C10.3151 8.91768 10.5373 8.76827 10.7246 8.58008C10.9119 8.39189 11.0607 8.16872 11.1621 7.92285C11.2635 7.67701 11.3154 7.41356 11.3154 7.14746C11.3154 6.8814 11.2634 6.61789 11.1621 6.37207C11.0607 6.12618 10.9119 5.90206 10.7246 5.71387L9.77539 4.76172C9.58806 4.57352 9.36487 4.42412 9.12012 4.32227C8.8755 4.22053 8.61338 4.16798 8.34863 4.16797ZM28.2852 4.16797C27.7503 4.16808 27.2376 4.3818 26.8594 4.76172L25.9092 5.71387C25.6272 5.99682 25.4353 6.35831 25.3574 6.75098C25.2797 7.14341 25.3193 7.55025 25.4717 7.91992C25.6242 8.28981 25.8834 8.60584 26.2148 8.82812C26.5463 9.05032 26.9356 9.16925 27.334 9.16895L27.3389 9.17383C27.6035 9.17382 27.8659 9.12136 28.1104 9.01953C28.3548 8.9177 28.5767 8.76818 28.7637 8.58008L29.7119 7.62793C29.8992 7.43981 30.048 7.21648 30.1494 6.9707C30.2508 6.72481 30.3027 6.46049 30.3027 6.19434C30.3027 5.92833 30.2507 5.66471 30.1494 5.41895C30.048 5.17312 29.8992 4.94987 29.7119 4.76172C29.5246 4.57354 29.3024 4.42411 29.0576 4.32227C28.8129 4.22041 28.5501 4.16797 28.2852 4.16797Z" fill="#00DF82"/>
<path d="M52.0474 29.1588C49.7866 29.1588 47.86 28.7262 46.2676 27.861C44.6753 26.9761 43.4564 25.7471 42.611 24.174C41.7854 22.5812 41.3725 20.7328 41.3725 18.6287C41.3725 16.505 41.7854 14.627 42.611 12.9949C43.4564 11.3628 44.6556 10.0945 46.2087 9.1899C47.7617 8.26569 49.6097 7.80358 51.7525 7.80358C54.2099 7.80358 56.2348 8.3935 57.8272 9.57335C59.4392 10.7335 60.4811 12.346 60.953 14.4107H56.3527C56.0382 13.5258 55.4976 12.8376 54.7309 12.346C53.9642 11.8544 52.9714 11.6086 51.7525 11.6086C50.4354 11.6086 49.3148 11.8937 48.3908 12.464C47.4668 13.0342 46.7591 13.8503 46.2676 14.9122C45.7958 15.9544 45.5599 17.203 45.5599 18.6582C45.5599 20.0937 45.8056 21.3227 46.2971 22.3452C46.8083 23.3677 47.5455 24.1543 48.5088 24.7049C49.4721 25.2358 50.6614 25.5013 52.0769 25.5013C53.7086 25.5013 54.9963 25.0589 55.9399 24.174C56.8835 23.2694 57.3554 22.0208 57.3554 20.428H51.7525V17.3604H61.5427V19.1596C61.5427 21.362 61.1299 23.2104 60.3042 24.7049C59.4785 26.1797 58.3481 27.2907 56.913 28.038C55.4976 28.7852 53.8757 29.1588 52.0474 29.1588Z" fill="#07603D"/>
<path d="M62.6456 28.8049V14.1748H66.774V16.387C67.1671 15.6594 67.6586 15.0891 68.2484 14.6762C68.8382 14.2436 69.5066 14.0273 70.2536 14.0273H72.0524V17.6848H69.8408C69.1134 17.6848 68.5236 17.8716 68.0715 18.2452C67.6193 18.6189 67.2851 19.1793 67.0689 19.9265C66.8723 20.6541 66.774 21.5488 66.774 22.6107V28.8049H62.6456Z" fill="#07603D"/>
<path d="M79.0723 29.1588C77.5586 29.1588 76.2218 28.8442 75.0619 28.215C73.902 27.566 72.9977 26.6812 72.3489 25.5603C71.7002 24.4198 71.3758 23.1121 71.3758 21.6373C71.3758 20.1232 71.6903 18.7762 72.3194 17.5963C72.9682 16.4165 73.8725 15.4923 75.0324 14.8237C76.1923 14.1551 77.5389 13.8208 79.0723 13.8208C80.5271 13.8208 81.8148 14.1354 82.9353 14.7647C84.0559 15.3939 84.9307 16.2592 85.5598 17.3604C86.1889 18.4419 86.5035 19.6807 86.5035 21.0769C86.5035 21.2735 86.5035 21.4997 86.5035 21.7553C86.5035 21.9913 86.4838 22.2371 86.4445 22.4927H74.3247V20.015H82.3161C82.2571 19.1498 81.9229 18.4615 81.3135 17.9503C80.7237 17.4193 79.9865 17.1539 79.1018 17.1539C78.4334 17.1539 77.8141 17.3014 77.244 17.5963C76.6936 17.8913 76.2512 18.3436 75.917 18.9531C75.6025 19.5431 75.4452 20.3001 75.4452 21.2244V22.0797C75.4452 22.827 75.5927 23.4857 75.8876 24.056C76.2021 24.6066 76.6248 25.0392 77.1556 25.3538C77.706 25.6488 78.3351 25.7963 79.0428 25.7963C79.7309 25.7963 80.3108 25.6488 80.7827 25.3538C81.2545 25.0392 81.6182 24.6361 81.8737 24.1445H86.0906C85.8154 25.0884 85.3436 25.9437 84.6752 26.7107C84.0264 27.4579 83.2204 28.0576 82.2571 28.5099C81.3135 28.9425 80.2519 29.1588 79.0723 29.1588Z" fill="#07603D"/>
<path d="M94.8971 29.1588C93.3834 29.1588 92.0465 28.8442 90.8867 28.215C89.7268 27.566 88.8225 26.6812 88.1737 25.5603C87.525 24.4198 87.2006 23.1121 87.2006 21.6373C87.2006 20.1232 87.5151 18.7762 88.1442 17.5963C88.793 16.4165 89.6973 15.4923 90.8572 14.8237C92.0171 14.1551 93.3637 13.8208 94.8971 13.8208C96.3519 13.8208 97.6395 14.1354 98.7601 14.7647C99.8807 15.3939 100.756 16.2592 101.385 17.3604C102.014 18.4419 102.328 19.6807 102.328 21.0769C102.328 21.2735 102.328 21.4997 102.328 21.7553C102.328 21.9913 102.309 22.2371 102.269 22.4927H90.1494V20.015H98.1409C98.0819 19.1498 97.7477 18.4615 97.1382 17.9503C96.5485 17.4193 95.8113 17.1539 94.9266 17.1539C94.2582 17.1539 93.6389 17.3014 93.0688 17.5963C92.5184 17.8913 92.076 18.3436 91.7418 18.9531C91.4273 19.5431 91.27 20.3001 91.27 21.2244V22.0797C91.27 22.827 91.4175 23.4857 91.7123 24.056C92.0269 24.6066 92.4496 25.0392 92.9804 25.3538C93.5308 25.6488 94.1599 25.7963 94.8676 25.7963C95.5557 25.7963 96.1356 25.6488 96.6074 25.3538C97.0793 25.0392 97.443 24.6361 97.6985 24.1445H101.915C101.64 25.0884 101.168 25.9437 100.5 26.7107C99.8512 27.4579 99.0452 28.0576 98.0819 28.5099C97.1382 28.9425 96.0767 29.1588 94.8971 29.1588Z" fill="#07603D"/>
<path d="M103.468 28.8049V14.1748H107.596V16.328C108.068 15.5611 108.707 14.9515 109.513 14.4992C110.339 14.0469 111.302 13.8208 112.403 13.8208C114.251 13.8208 115.666 14.4107 116.649 15.5906C117.632 16.7508 118.124 18.432 118.124 20.6344V28.8049H113.995V21.0179C113.995 19.8184 113.749 18.904 113.258 18.2747C112.786 17.6258 112.029 17.3014 110.987 17.3014C110.004 17.3014 109.188 17.6553 108.54 18.3632C107.911 19.0515 107.596 20.015 107.596 21.2539V28.8049H103.468Z" fill="#07603D"/>
<path d="M125.211 28.8049V11.4906H119.195V8.15753H135.325V11.4906H129.339V28.8049H125.211Z" fill="#07603D"/>
<path d="M140.212 29.1588C138.698 29.1588 137.361 28.8442 136.201 28.215C135.041 27.566 134.137 26.6812 133.488 25.5603C132.839 24.4198 132.515 23.1121 132.515 21.6373C132.515 20.1232 132.83 18.7762 133.459 17.5963C134.108 16.4165 135.012 15.4923 136.172 14.8237C137.332 14.1551 138.678 13.8208 140.212 13.8208C141.666 13.8208 142.954 14.1354 144.075 14.7647C145.195 15.3939 146.07 16.2592 146.699 17.3604C147.328 18.4419 147.643 19.6807 147.643 21.0769C147.643 21.2735 147.643 21.4997 147.643 21.7553C147.643 21.9913 147.623 22.2371 147.584 22.4927H135.464V20.015H143.455C143.396 19.1498 143.062 18.4615 142.453 17.9503C141.863 17.4193 141.126 17.1539 140.241 17.1539C139.573 17.1539 138.953 17.3014 138.383 17.5963C137.833 17.8913 137.391 18.3436 137.056 18.9531C136.742 19.5431 136.585 20.3001 136.585 21.2244V22.0797C136.585 22.827 136.732 23.4857 137.027 24.056C137.341 24.6066 137.764 25.0392 138.295 25.3538C138.845 25.6488 139.474 25.7963 140.182 25.7963C140.87 25.7963 141.45 25.6488 141.922 25.3538C142.394 25.0392 142.757 24.6361 143.013 24.1445H147.23C146.955 25.0884 146.483 25.9437 145.814 26.7107C145.166 27.4579 144.36 28.0576 143.396 28.5099C142.453 28.9425 141.391 29.1588 140.212 29.1588Z" fill="#07603D"/>
<path d="M156.007 29.1588C154.493 29.1588 153.156 28.8344 151.996 28.1855C150.837 27.5169 149.922 26.6123 149.254 25.4718C148.605 24.3116 148.281 22.9843 148.281 21.4898C148.281 19.9953 148.605 18.6778 149.254 17.5373C149.922 16.3771 150.837 15.4726 151.996 14.8237C153.156 14.1551 154.493 13.8208 156.007 13.8208C157.894 13.8208 159.487 14.3222 160.784 15.3251C162.082 16.3083 162.917 17.675 163.291 19.4251H158.926C158.749 18.7958 158.396 18.2944 157.865 17.9208C157.334 17.5472 156.705 17.3604 155.977 17.3604C155.329 17.3604 154.739 17.5275 154.208 17.8618C153.677 18.1961 153.255 18.668 152.94 19.2776C152.645 19.8872 152.498 20.6246 152.498 21.4898C152.498 22.3354 152.645 23.0728 152.94 23.702C153.255 24.3313 153.677 24.8131 154.208 25.1474C154.739 25.4816 155.329 25.6488 155.977 25.6488C156.705 25.6488 157.334 25.4718 157.865 25.1179C158.396 24.7442 158.749 24.2231 158.926 23.5546H163.291C162.937 25.2457 162.101 26.6025 160.784 27.625C159.487 28.6476 157.894 29.1588 156.007 29.1588Z" fill="#07603D"/>
<path d="M164.348 28.8049V7.56761H168.476V16.328C168.948 15.5611 169.597 14.9515 170.423 14.4992C171.268 14.0469 172.231 13.8208 173.312 13.8208C175.141 13.8208 176.546 14.4107 177.529 15.5906C178.512 16.7508 179.004 18.432 179.004 20.6344V28.8049H174.905V21.0179C174.905 19.8184 174.669 18.904 174.197 18.2747C173.725 17.6258 172.968 17.3014 171.926 17.3014C170.924 17.3014 170.098 17.6553 169.449 18.3632C168.801 19.0515 168.476 20.015 168.476 21.2539V28.8049H164.348Z" fill="#07603D"/>
<path d="M178.429 10.3697C177.739 10.3697 177.124 10.2209 176.583 9.92327C176.043 9.61417 175.617 9.19059 175.307 8.65253C175.008 8.10302 174.858 7.48483 174.858 6.79794C174.858 6.09961 175.008 5.48713 175.307 4.96052C175.617 4.42246 176.043 3.99888 176.583 3.68978C177.124 3.38068 177.739 3.22614 178.429 3.22614C179.131 3.22614 179.746 3.38068 180.275 3.68978C180.815 3.99888 181.235 4.42246 181.534 4.96052C181.845 5.48713 182 6.09961 182 6.79794C182 7.48483 181.845 8.10302 181.534 8.65253C181.235 9.19059 180.815 9.61417 180.275 9.92327C179.746 10.2209 179.131 10.3697 178.429 10.3697ZM178.429 9.61417C179.269 9.61417 179.936 9.35087 180.43 8.82426C180.936 8.29764 181.189 7.6222 181.189 6.79794C181.189 5.97368 180.936 5.30396 180.43 4.7888C179.936 4.26219 179.269 3.99888 178.429 3.99888C177.59 3.99888 176.917 4.26219 176.411 4.7888C175.916 5.30396 175.669 5.97368 175.669 6.79794C175.669 7.6222 175.916 8.29764 176.411 8.82426C176.917 9.35087 177.59 9.61417 178.429 9.61417ZM176.98 8.60102V4.92618H178.74C179.131 4.92618 179.441 5.03493 179.671 5.25245C179.901 5.45851 180.016 5.73327 180.016 6.07671C180.016 6.4545 179.884 6.75215 179.619 6.96966C179.757 7.06125 179.849 7.17573 179.895 7.31311C179.953 7.45048 179.987 7.60503 179.999 7.77675L180.068 8.60102H179.154L179.085 7.98282C179.05 7.67372 179.004 7.47338 178.947 7.38179C178.889 7.27876 178.74 7.22725 178.498 7.22725H177.981V8.60102H176.98ZM177.963 6.50602H178.619C178.734 6.50602 178.832 6.4774 178.912 6.42015C178.993 6.36291 179.033 6.26561 179.033 6.12823C179.033 6.0023 178.993 5.91644 178.912 5.87065C178.832 5.81341 178.734 5.78479 178.619 5.78479H177.963V6.50602Z" fill="#07603D"/>
</svg>
